<?xml version="1.0" encoding="utf-8"?>
<!-- Generator: Adobe Illustrator 26.0.1, SVG Export Plug-In . SVG Version: 6.00 Build 0)  -->
<svg version="1.1" id="Layer_1" xmlns="http://www.w3.org/2000/svg" xmlns:xlink="http://www.w3.org/1999/xlink" x="0px" y="0px"
	 viewBox="0 0 500 500" style="enable-background:new 0 0 500 500;" xml:space="preserve">
<style type="text/css">
	.st0{fill:none;}
	.st1{fill:#4479BD;}
</style>
<g>
	
		<rect x="-0.7" y="-0.5" transform="matrix(-1 -1.224647e-16 1.224647e-16 -1 499.0562 499.5281)" class="st0" width="500.5" height="500.5"/>
	<g>
		<path class="st1" d="M208.7,279.4c-0.2,10.1-7,19-16.2,22.8c-3.1,1.3-6.5,1.9-9.9,1.9c-14.5-0.2-26.1-11.7-25.9-25.8
			c0.2-13.9,12.1-25.2,26.3-25C197.6,253.5,208.9,264.9,208.7,279.4 M244.2,161.6v-1.1h-35.7l0,64.3c-2.4-1.3-4.5-2.1-4.5-2.1
			c-0.2-0.1-0.5-0.1-0.7-0.2c-11.4-4-23.1-4.6-34.9-1.9c-32.8,7.5-53.5,40.1-45.7,72c7.8,32,39.7,51.8,72.7,45.2
			c28.1-5.6,48.8-30.4,48.8-58.4C244.2,240.1,244.2,200.8,244.2,161.6"/>
		<g>
			<path class="st1" d="M356.2,160.8l-38.7,59.3c1.3-0.3,2.6-0.5,4-0.6c1.4-0.1,2.9-0.1,4.5-0.1c6.1,0,12.3,1.3,18.5,4
				c6.2,2.7,11.8,6.5,16.7,11.4c4.9,5,8.9,10.9,11.9,17.9c3.1,7,4.6,14.8,4.6,23.5c0,9.3-1.7,17.8-5,25.5
				c-3.3,7.7-7.8,14.3-13.3,19.8c-5.6,5.5-12,9.8-19.3,12.8c-7.2,3.1-14.9,4.6-22.9,4.6c-7.9,0-15.5-1.5-22.8-4.4
				c-7.3-2.9-13.8-7.1-19.4-12.5c-5.6-5.4-10.1-12-13.5-19.7c-3.4-7.7-5.1-16.4-5.1-26c0-3.1,0.3-6.6,0.9-10.3
				c0.6-3.7,1.7-7.5,3.1-11.5c1.4-3.6,3-7,4.6-10.3c1.7-3.2,3.5-6.3,5.6-9.3l46.2-74.2H356.2z M292.6,277.9c0,3.6,0.6,7,1.9,10.2
				c1.3,3.2,3,6.1,5.2,8.4c2.2,2.4,4.8,4.3,7.7,5.7c3,1.4,6.2,2.1,9.8,2.1c4,0,7.5-0.8,10.5-2.4c3-1.6,5.6-3.6,7.6-6.1
				c2-2.4,3.6-5.2,4.7-8.1c1.1-3,1.6-5.9,1.6-8.8c0-3.6-0.6-6.9-1.9-10c-1.3-3.1-3-5.8-5.3-8.1c-2.3-2.3-4.9-4.2-7.9-5.6
				c-3-1.4-6.3-2.1-9.9-2.1c-3.8,0-7.2,0.8-10.2,2.4c-3,1.6-5.5,3.6-7.5,6c-2.1,2.4-3.6,5-4.7,7.9
				C293.1,272.2,292.6,275.1,292.6,277.9z"/>
		</g>
	</g>
</g>
</svg>
