<?xml version="1.0" encoding="utf-8"?>
<!-- Generator: Adobe Illustrator 25.1.0, SVG Export Plug-In . SVG Version: 6.00 Build 0)  -->
<svg version="1.1" id="Layer_1" xmlns="http://www.w3.org/2000/svg" xmlns:xlink="http://www.w3.org/1999/xlink" x="0px" y="0px"
	 viewBox="0 0 500 500" style="enable-background:new 0 0 500 500;" xml:space="preserve">
<style type="text/css">
	.st0{fill:#ffffff;}
	.st1{fill:#ffffff;}
</style>
<g>
	<path class="st0" d="M200.51,236.96c-0.14,9.28-6.36,17.42-14.84,20.85c-2.83,1.14-5.91,1.76-9.1,1.72
		c-13.26-0.17-23.84-10.7-23.67-23.55c0.17-12.71,11.04-23.08,24.01-22.88C190.35,213.3,200.71,223.77,200.51,236.96 M244.45,107.08
		v-1.16h-43.92v68.4c-0.17,0.02-0.24,0.05-0.3,0.04c-0.26-0.08-0.52-0.16-0.78-0.25c-12.6-4.39-25.41-5.11-38.43-2.12
		c-36.09,8.26-58.87,44.12-50.35,79.22c8.55,35.19,43.69,57.04,80.04,49.77c30.91-6.18,53.73-33.45,53.73-64.29
		C244.46,193.48,244.45,150.27,244.45,107.08"/>
	<path class="st0" d="M345.36,239.5c-0.1-1.34-0.16-2.68-0.3-4.01c-1.09-10.61-8.93-17.85-19.34-18.24
		c-9.34-0.35-17.36,5-20.08,13.7c-1.22,3.9-1.39,7.89-1.01,11.93c1.02,10.93,8.66,18.11,19.03,18.65
		c8.24,0.43,15.83-3.65,19.3-10.72C344.71,247.24,345.31,243.43,345.36,239.5 M366.21,105.91c-13.11,25.37-26.15,50.59-39.23,75.89
		c1.87-0.29,3.58-0.63,5.3-0.8c11.94-1.2,22.95,1.45,32.92,7.9c13.63,8.81,21.72,21.31,24.75,36.84c2.48,12.68,1.86,25.31-2.75,37.5
		c-6.36,16.84-18.44,28.21-35.76,34.31c-10.26,3.62-20.85,4.89-31.71,4.26c-10.99-0.63-21.46-3.18-31.08-8.43
		c-15.14-8.25-24.39-20.88-28.33-37.22c-3.5-14.51-1.89-28.7,3.16-42.65c3.13-8.63,7.17-16.85,11.26-25.07
		c13.58-27.29,27.18-54.57,40.76-81.85c0.25-0.51,0.53-0.74,1.14-0.74c16.26,0.02,32.51,0.01,48.77,0.02
		C365.63,105.87,365.83,105.89,366.21,105.91"/>
	<path class="st1" d="M393.74,348.48c12.82-3.17,25.81-5.24,39.06-5.59C424.93,342.23,396.66,346.32,393.74,348.48 M437.6,343.66
		c-2.35-0.09-4.71-0.21-7.06-0.16c-6.61,0.13-13.18,0.9-19.68,2.03c-5.47,0.95-10.9,2.18-16.33,3.36c-1.8,0.39-1.96,0.93-1.55,2.75
		c0.23,1.03,0.66,1.24,1.62,0.97c10.92-3.11,22.1-4.72,33.41-5.57c2.75-0.1,5.49-0.19,8.24-0.29c0.89-0.03,2.09,0.35,1.92-1.29
		c0-0.06,0.17-0.12,0.22-0.2C438.93,344.48,438.57,343.7,437.6,343.66 M374.2,352.82c-0.09-0.02-0.18-0.04-0.27-0.06
		c0.31-1.46,0.63-2.92,0.94-4.39c0.11,0,0.22,0.01,0.33,0.01C374.87,349.87,374.54,351.35,374.2,352.82 M358.61,362.57
		c-0.81-1.95-0.02-3.73,0.48-5.5C358.93,358.88,358.77,360.7,358.61,362.57 M361.53,356.98c1.16-3.54,2.79-6.85,5.42-9.56
		c0.39-0.4,0.88-0.69,1.32-1.03c0.13,0.09,0.25,0.19,0.38,0.28c-1.67,3.55-3.34,7.09-5.03,10.63c-0.1,0.22-0.27,0.44-0.47,0.57
		c-0.32,0.22-0.69,0.35-1.05,0.53C361.9,357.93,361.41,357.36,361.53,356.98z M375.65,347.69c-0.32-0.54-0.91-0.92-1.38-1.37
		c-0.09,0.07-0.17,0.13-0.26,0.21c0.03,0.23,0.03,0.48,0.1,0.7c0.51,1.53,0.19,2.97-0.5,4.35c-2.1,4.18-5.04,7.69-8.66,10.62
		c-1.24,1.01-2.64,1.78-4.56,1.96c0.24-1.65,0.46-3.17,0.71-4.92c0.39,0.3,0.54,0.4,0.67,0.51c1.57,1.22,2.68,1.04,3.68-0.68
		c0.55-0.96,1.04-1.96,1.44-2.99c1.24-3.19,2.44-6.39,3.63-9.6c0.09-0.24,0.03-0.67-0.14-0.86c-0.74-0.8-1.5-1.59-2.34-2.28
		c-1.22-1.01-2.61-0.99-3.87-0.13c-0.92,0.63-1.79,1.42-2.5,2.29c-2.53,3.12-4.08,6.73-5.08,10.6c-0.46,1.81-0.8,3.66-0.36,5.49
		c0.81,3.41,3.6,4.95,6.45,6.28c0.6,0.28,1.52-0.11,2.29-0.18c-0.01-0.05-0.02-0.1-0.03-0.15c-0.97-0.01-1.93-0.02-2.9-0.03
		c-0.02-0.13-0.03-0.27-0.05-0.41c2.46,0.23,4.33-0.96,5.89-2.57c1.93-2,3.78-4.09,5.52-6.24c1.46-1.82,2.48-3.91,2.9-6.24
		C376.56,350.53,376.42,349.03,375.65,347.69 M346.25,369.4c-0.32,6.55-3.26,12.09-6.9,17.33c2.6-4.01,4.75-8.23,5.76-12.95
		c1-4.72,0.67-9.45,0.07-14.18C346.33,362.77,346.42,366.08,346.25,369.4 M339.9,387.47c1.58-2.8,3.22-5.69,4.79-8.47
		C344.26,381.1,341.55,385.92,339.9,387.47z M345.19,364.04c0.07,0,0.14,0,0.22,0c-0.07,2.54-0.14,5.08-0.21,7.61
		c-0.07,0-0.13,0-0.2,0C345.07,369.11,345.13,366.58,345.19,364.04 M338.06,385.91c-0.42,0.61-1.11,1.03-1.67,1.54
		c-0.14-0.05-0.28-0.1-0.42-0.15c0.05-2-0.08-4.03,0.18-6c1.04-7.84,3.32-15.35,6.42-22.61c0.04-0.09,0.11-0.17,0.15-0.24
		c1.51,0.32,1.59,1.49,1.74,2.57c0.82,6.12,0.89,12.2-1.92,17.89C341.31,381.38,339.62,383.62,338.06,385.91 M339.8,357.73
		c-0.87,2.42-1.79,4.83-2.6,7.27c-0.8,2.42-1.48,4.88-2.27,7.3C335.95,367.26,337.61,362.42,339.8,357.73 M334.54,386.65
		c-0.86-2.98-0.45-5.93,0.11-8.9C334.61,380.69,334.58,383.63,334.54,386.65 M357.55,352.27c-0.6-0.73-1.16-0.62-1.92-0.11
		c-3.12,2.12-6.44,3.79-10.18,4.51c-0.63,0.12-1.34,0.42-1.84-0.36c3.27-7.25,7.16-14.15,11.49-20.83
		c-0.92,1.13-1.85,2.26-2.77,3.39c-0.07-0.06-0.14-0.11-0.21-0.16c1.2-1.52,2.34-3.09,3.62-4.54c0.56-0.64,0.57-1.12,0.19-1.78
		c-0.75-1.28-1.87-1.6-3.03-0.59c-1.18,1.01-2.29,2.16-3.23,3.4c-7.02,9.28-12.1,19.56-15.42,30.69
		c-1.62,5.44-2.79,10.97-2.46,16.73c0.21,3.69,1.82,6.26,5.34,7.61c1.03,0.4,1.92,0.36,2.66-0.38c0.9-0.91,1.79-1.86,2.48-2.93
		c5.45-8.47,6.73-17.57,4.02-27.32c0.04-0.03,0.06-0.07,0.09-0.08c0.35-0.08,0.7-0.15,1.05-0.23c3.68-0.86,6.98-2.48,9.85-4.95
		C358.15,353.61,358.19,353.05,357.55,352.27 M338.14,356.32c2.95-3.83,5.98-7.62,7.94-12.08
		C343.43,348.26,340.78,352.29,338.14,356.32 M335.75,347.02c-0.26-0.53-0.64-0.97-0.67-1.43c-0.04-0.67,0.07-1.4,0.3-2.04
		c1.15-3.18,2.21-6.4,3.59-9.48c1.83-4.05,3.94-7.98,5.92-11.97c0.15-0.3,0.21-0.64,0.32-0.96c-0.1-0.04-0.2-0.08-0.3-0.12
		c-0.67,1.14-1.33,2.29-2.04,3.53c-0.07-0.22-0.1-0.26-0.09-0.28c0.43-0.86,0.95-1.69,1.24-2.59c0.21-0.64,1.08-0.95,0.29-2.14
		c-1.13-1.7-2.03-2.21-3.47-0.68c-0.34,0.36-0.71,0.73-0.95,1.16c-1.23,2.21-2.58,4.36-3.58,6.66c-2.02,4.67-3.81,9.42-4.89,14.43
		C330.71,344.5,333.19,346.33,335.75,347.02z M345.58,343.82c-0.74-1.01-1.13-0.56-1.59,0.13c-4.33,6.4-9.2,12.37-14.46,18.03
		c-0.55,0.58-1.14,1.12-1.71,1.69c0.07-0.77,0.25-1.45,0.51-2.1c1.32-3.31,2.68-6.6,3.99-9.91c0.21-0.52,0.22-1.12,0.35-1.88
		c-0.38,0.17-0.47,0.19-0.5,0.23c-0.15,0.24-0.29,0.49-0.42,0.74c-2.12,4.07-3.49,8.41-4.53,12.86c-0.1,0.4-0.4,0.74-0.6,1.11
		c-0.14-0.06-0.27-0.12-0.41-0.19c0.6-2,1.11-4.03,1.83-5.98c1-2.67,2.18-5.26,3.23-7.92c0.23-0.57,0.53-1.45,0.27-1.8
		c-0.5-0.67-1.31-1.29-2.11-1.5c-0.38-0.1-1.17,0.69-1.51,1.24c-2.46,4.07-4.1,8.46-4.81,13.16c-0.26,1.71-0.42,3.52,1.25,4.81
		c2.6,2.01,2.94,1.78,4.78-0.26c2.32-2.56,4.57-5.22,6.61-8c3.14-4.27,6.1-8.7,9.12-13.07C345.2,344.78,345.38,344.24,345.58,343.82
		 M311.66,364.3c-0.61,2.39-0.93,4.86-1.39,7.29c0.09,0.01,0.18,0.03,0.27,0.04c2.64-15.65,9.91-29.41,17.62-42.99
		c-0.66,0.8-1.22,1.65-1.77,2.5C319.79,341.44,314.68,352.41,311.66,364.3z M310.78,375.76c-0.05-0.11-0.11-0.21-0.16-0.32
		c0.96-0.47,1.92-0.94,2.89-1.42c0.04,0.08,0.08,0.15,0.11,0.23C312.67,374.76,311.72,375.26,310.78,375.76z M309.6,373.67
		c-0.1,0-0.2,0.01-0.3,0.01c-0.02-0.56-0.07-1.12-0.05-1.68c0.02-0.63,0.11-1.26,0.17-1.89c0.02-0.01,0.04-0.03,0.06-0.04
		C309.52,371.27,309.56,372.47,309.6,373.67 M327.26,355.77c-1.49,2.28-2.93,4.53-4.44,6.74c-2.58,3.79-5.46,7.34-9.07,10.21
		c-1.03,0.82-2.24,1.44-3.47,2.22c-0.1-0.45-0.15-0.63-0.18-0.8c-0.46-2.81,0.11-5.55,0.72-8.26c3.02-13.46,8.86-25.68,16.43-37.12
		c0.61-0.92,1.22-1.83,1.83-2.75c-0.08-0.05-0.16-0.1-0.24-0.15c-1.59,2.33-3.25,4.61-4.74,6.99s-2.89,4.84-4.22,7.32
		c-1.3,2.43-2.47,4.94-3.76,7.54c-0.01-0.24-0.04-0.32-0.01-0.37c2.56-5.78,5.31-11.45,8.82-16.72c1.09-1.63,2.23-3.23,3.32-4.87
		c0.45-0.67,0.56-1.41-0.06-2.01c-0.73-0.71-1.42-0.41-2.01,0.28c-0.67,0.79-1.38,1.55-2.01,2.37
		c-7.45,9.76-12.53,20.68-15.82,32.46c-1.17,4.2-2.01,8.47-1.55,12.88c0.26,2.46,1.55,4.19,3.85,5.05c0.59,0.22,1.49,0.22,2.01-0.08
		c1.31-0.78,2.59-1.66,3.68-2.72c4.82-4.67,8.38-10.25,11.46-16.17c0.07-0.14,0.08-0.32,0.19-0.74c-1.29,2.15-2.44,4.04-3.57,5.93
		c-0.11-0.06-0.21-0.12-0.31-0.18c1.36-2.24,2.73-4.48,4.12-6.77C327.75,355.92,327.46,355.83,327.26,355.77 M273.08,380.05
		c3.03,0.08,5.91,0.15,7.94-2.44C279.64,380.39,276.25,381.46,273.08,380.05 M288.26,346.64c-1.14,3.81-2.27,7.6-3.41,11.39
		c-0.08-0.02-0.15-0.04-0.22-0.07c0.59-2.09,1.18-4.18,1.77-6.27c1.06-2.78,2.14-5.87,1.62-5.14c-0.63,0.87-0.1,0.21-0.71,1.09
		c0,0,0,0.01-0.01,0.01c-0.01,0-0.03-0.01-0.04-0.02c-0.03,0.08-0.07,0.15-0.1,0.22c-4.11,5.91-8.24,11.8-13.19,17.06
		c-0.81,0.86-1.72,1.62-2.69,2.54c-0.01-0.3-0.02-0.38-0.01-0.45c0.91-5.39,2.18-9.72,4.44-14.66c0.32-0.7,0.66-1.08,1.06-1.75
		c0.13-0.22,0.24-0.52,0.22-0.77c-0.06-0.76-1.45-2.3-2.19-2.46c-1.09-0.23-1.55,0.6-1.99,1.31c-3.03,4.9-4.4,9.2-5.11,14.95
		c-0.39,3.21-0.45,5.17,3.61,7.08c1.28,0.61,2.57,0.22,3.69-0.67c-0.35,0.08-0.71,0.15-0.77,0.16c2.93-3.92,6.51-9.12,9.64-13.38
		c-0.43,1.16-0.87,2.33-1.34,3.47c-1.37,3.32-2.92,6.58-4.65,9.72c-0.91,1.65-2.31,3.07-3.63,4.45c-1.1,1.15-2.6,1.5-4.15,1.15
		c-1.14-0.25-2.27-0.61-3.34-1.09c-0.46-0.21-0.87-0.78-1.08-1.28c-0.43-1-0.76-2.02-1.82-2.68c-0.07,0.54-0.12,0.97-0.17,1.39
		c-0.07,0-0.13-0.01-0.2-0.02c-0.05-0.56-0.1-1.11-0.14-1.66c-0.08,0-0.15,0-0.22,0c-0.08,0.2-0.15,0.4-0.21,0.55
		c-0.17-0.11-0.28-0.18-0.43-0.27c-0.44,2.19-0.14,2.96,1.58,4.6c3.13,2.95,6.88,4.8,10.92,6.1c2.72,0.87,4.89,0.23,6.49-2.13
		c1.26-1.88,2.42-3.9,3.17-6.03c1.26-3.57,2.23-7.25,3.19-10.92c0.98-3.75,1.86-7.52,2.68-11.31
		C290.9,349.05,289.96,347.39,288.26,346.64 M260.76,372.38c-0.32,6.55-3.26,12.09-6.9,17.33c2.6-4.01,4.75-8.23,5.76-12.95
		c1-4.72,0.67-9.45,0.07-14.18C260.84,365.75,260.92,369.07,260.76,372.38 M254.41,390.46c1.58-2.81,3.22-5.69,4.78-8.47
		C258.77,384.08,256.05,388.91,254.41,390.46z M259.7,367.03c0.08,0,0.15,0,0.22,0c-0.07,2.54-0.13,5.07-0.2,7.61
		c-0.07,0-0.13,0-0.2,0C259.58,372.1,259.64,369.56,259.7,367.03 M252.57,388.9c-0.42,0.61-1.11,1.03-1.67,1.54
		c-0.14-0.05-0.28-0.1-0.42-0.15c0.05-2-0.09-4.03,0.18-6c1.04-7.84,3.32-15.35,6.42-22.61c0.04-0.09,0.11-0.17,0.15-0.24
		c1.51,0.32,1.59,1.49,1.74,2.57c0.82,6.12,0.89,12.2-1.92,17.89C255.82,384.36,254.13,386.6,252.57,388.9z M254.31,360.72
		c-0.87,2.42-1.79,4.82-2.6,7.27c-0.79,2.42-1.48,4.88-2.27,7.3C250.46,370.25,252.12,365.4,254.31,360.72 M249.05,389.64
		c-0.87-2.98-0.45-5.94,0.11-8.9C249.12,383.68,249.09,386.62,249.05,389.64 M272.06,355.26c-0.6-0.73-1.16-0.62-1.92-0.11
		c-3.12,2.12-6.45,3.79-10.18,4.51c-0.63,0.12-1.34,0.42-1.84-0.36c3.27-7.25,7.16-14.15,11.49-20.83
		c-0.92,1.13-1.85,2.26-2.77,3.39c-0.07-0.05-0.13-0.11-0.2-0.16c1.2-1.52,2.34-3.09,3.62-4.55c0.56-0.63,0.57-1.12,0.19-1.78
		c-0.75-1.28-1.87-1.6-3.03-0.6c-1.18,1.02-2.29,2.17-3.23,3.41c-7.02,9.28-12.1,19.56-15.42,30.69
		c-1.63,5.45-2.79,10.98-2.46,16.73c0.21,3.69,1.82,6.26,5.34,7.61c1.03,0.4,1.92,0.37,2.66-0.38c0.89-0.91,1.79-1.86,2.48-2.93
		c5.45-8.47,6.73-17.57,4.02-27.33c0.03-0.03,0.06-0.07,0.09-0.07c0.35-0.08,0.7-0.15,1.04-0.23c3.68-0.86,6.99-2.48,9.86-4.95
		C272.66,356.6,272.7,356.04,272.06,355.26 M252.65,359.3c2.95-3.83,5.98-7.62,7.94-12.08C257.94,351.25,255.29,355.28,252.65,359.3
		 M250.26,350.01c-0.26-0.54-0.64-0.97-0.67-1.43c-0.04-0.67,0.07-1.4,0.3-2.04c1.15-3.17,2.21-6.4,3.6-9.48
		c1.83-4.05,3.94-7.98,5.92-11.96c0.14-0.3,0.21-0.64,0.31-0.96c-0.1-0.04-0.2-0.08-0.3-0.12c-0.66,1.14-1.32,2.29-2.03,3.53
		c-0.07-0.22-0.1-0.26-0.09-0.28c0.42-0.86,0.95-1.69,1.24-2.59c0.21-0.64,1.08-0.96,0.29-2.14c-1.13-1.7-2.03-2.21-3.46-0.68
		c-0.34,0.36-0.71,0.73-0.95,1.16c-1.23,2.21-2.58,4.36-3.58,6.66c-2.02,4.67-3.81,9.42-4.89,14.43
		C245.22,347.49,247.69,349.32,250.26,350.01z M260.09,346.81c-0.74-1.01-1.13-0.56-1.59,0.13c-4.33,6.4-9.2,12.37-14.46,18.03
		c-0.54,0.58-1.14,1.12-1.71,1.68c0.07-0.77,0.24-1.45,0.5-2.09c1.33-3.31,2.68-6.6,4-9.91c0.21-0.52,0.22-1.12,0.35-1.88
		c-0.38,0.17-0.47,0.18-0.5,0.23c-0.15,0.24-0.29,0.49-0.42,0.75c-2.12,4.07-3.49,8.41-4.54,12.86c-0.09,0.4-0.39,0.74-0.6,1.11
		c-0.13-0.06-0.27-0.12-0.4-0.19c0.6-2,1.1-4.03,1.83-5.98c1-2.67,2.19-5.26,3.24-7.91c0.22-0.57,0.53-1.45,0.27-1.8
		c-0.5-0.67-1.31-1.29-2.11-1.5c-0.38-0.1-1.17,0.69-1.51,1.24c-2.46,4.06-4.1,8.46-4.81,13.15c-0.26,1.71-0.42,3.53,1.25,4.81
		c2.6,2.01,2.94,1.77,4.78-0.26c2.32-2.56,4.57-5.21,6.61-8c3.14-4.28,6.1-8.69,9.12-13.07
		C259.71,347.77,259.89,347.23,260.09,346.81 M226.17,367.29c-0.61,2.39-0.93,4.86-1.39,7.29c0.09,0.02,0.18,0.03,0.26,0.05
		c2.64-15.65,9.91-29.41,17.63-42.99c-0.66,0.8-1.22,1.65-1.77,2.5C234.3,344.43,229.18,355.4,226.17,367.29z M225.28,378.75
		c-0.06-0.11-0.11-0.22-0.16-0.32c0.96-0.47,1.92-0.94,2.88-1.42c0.04,0.08,0.08,0.15,0.12,0.23
		C227.18,377.74,226.23,378.24,225.28,378.75z M224.11,376.66c-0.1,0-0.2,0.01-0.3,0.01c-0.02-0.56-0.07-1.12-0.05-1.68
		c0.02-0.63,0.11-1.26,0.17-1.89c0.02-0.01,0.04-0.03,0.06-0.04C224.03,374.26,224.07,375.45,224.11,376.66 M241.77,358.75
		c-1.5,2.28-2.94,4.53-4.44,6.74c-2.57,3.79-5.46,7.34-9.07,10.21c-1.04,0.82-2.24,1.44-3.47,2.22c-0.1-0.46-0.15-0.63-0.18-0.8
		c-0.46-2.81,0.11-5.55,0.71-8.25c3.02-13.46,8.86-25.68,16.43-37.13c0.61-0.91,1.22-1.83,1.83-2.75c-0.08-0.05-0.16-0.1-0.24-0.15
		c-1.58,2.33-3.24,4.61-4.74,6.99c-1.5,2.38-2.89,4.84-4.22,7.32c-1.3,2.43-2.47,4.94-3.76,7.54c-0.01-0.24-0.03-0.32-0.01-0.37
		c2.56-5.78,5.31-11.45,8.83-16.72c1.09-1.63,2.23-3.23,3.31-4.87c0.45-0.67,0.56-1.41-0.06-2.01c-0.74-0.72-1.42-0.41-2.01,0.28
		c-0.67,0.79-1.38,1.55-2.01,2.37c-7.45,9.76-12.53,20.68-15.81,32.46c-1.17,4.2-2.01,8.47-1.55,12.88
		c0.26,2.47,1.55,4.19,3.85,5.05c0.59,0.22,1.49,0.23,2.01-0.08c1.31-0.78,2.59-1.67,3.68-2.72c4.82-4.67,8.38-10.25,11.45-16.17
		c0.08-0.14,0.09-0.32,0.19-0.74c-1.29,2.15-2.44,4.04-3.57,5.93c-0.11-0.06-0.21-0.12-0.31-0.18c1.36-2.24,2.73-4.48,4.12-6.77
		C242.26,358.91,241.97,358.82,241.77,358.75 M216.86,349.49c-2.2,8.11-5.87,15.43-11.91,21.4c-1.18,1.16-2.54,2.21-3.96,3.05
		c-2.33,1.37-4.06,1.06-6.01-0.78c-0.52-0.49-1-1.01-1.5-1.53c-1.26-1.32-1.28-1.34-0.38-2.87c4.7-7.99,10.44-15.15,17.54-21.14
		c1.57-1.33,3.55-2.2,5.37-3.22c0.4-0.22,0.95-0.17,1.85-0.32C217.5,346.1,217.31,347.83,216.86,349.49 M217.07,342.57
		c-1.83,0.67-3.51,1.27-5.2,1.88C213.47,343.56,214.91,342.26,217.07,342.57 M182.34,392.69c-0.11,0.01-0.23,0.01-0.35,0.02
		c-0.05-0.38-0.23-0.8-0.13-1.14c0.84-2.86,1.67-5.73,2.62-8.57c0.75-2.22,1.65-4.38,2.47-6.58
		C185.33,381.84,183.09,387.04,182.34,392.69 M220.71,352.21c0.65-2.65,0.63-5.37-0.64-7.94c-1.83-3.69-4.2-4.57-7.68-2.39
		c-2.15,1.35-4.09,3.09-5.97,4.82c-2.09,1.91-4.02,4.01-5.62,5.63c0.67-1.33,1.75-3.25-0.13-5.22c-0.19,0.16-0.34,0.3-0.7,0.59
		c0.53-1.4-0.51-1.73-1.13-2.1c-0.75-0.45-1.3,0.27-1.78,0.8c-0.31,0.34-0.6,0.71-0.83,1.11c-1.36,2.3-2.82,4.55-4.02,6.93
		c-4.29,8.46-7.56,17.35-10.84,26.22c-1.1,2.95-1.81,6.05-2.61,9.11c-0.28,1.05-0.15,2.15,0.62,3.03c1.21,1.37,2.56,2.46,4.58,2.26
		c-0.21-0.24-0.5-0.44-0.57-0.69c-0.34-1.28-0.57-2.55-0.04-3.89c1.74-4.36,3.42-8.75,5.08-13.15c0.25-0.66,0.55-0.98,1.21-0.65
		c0.53-1.35,1.02-2.63,1.56-4.02c2.44,2.99,5.39,4.88,8.75,6.39c3.09,1.39,5.57,0.85,7.99-1.18c3.13-2.63,5.54-5.84,7.53-9.38
		c0.51-0.9,0.97-1.82,1.4-2.77c0.41-0.9,0.76-1.83,1.13-2.75c-0.04-0.01-0.08-0.03-0.12-0.05c-0.12,0.16-0.25,0.32-0.37,0.47
		c-0.01-0.37,0.11-0.65,0.21-0.95C218.71,359.04,219.87,355.66,220.71,352.21z M155.36,372.72c-0.16-0.07-0.33-0.13-0.5-0.2
		c1.44-3.78,2.88-7.55,4.32-11.33c0.09,0.03,0.17,0.07,0.25,0.1C158.07,365.1,156.72,368.91,155.36,372.72 M189.64,362.17
		c-0.33,0.13-0.7,0.21-0.98,0.41c-0.21,0.15-0.29,0.48-0.45,0.72c-1.29,2.08-2.59,4.15-3.89,6.22c-0.11-0.06-0.23-0.11-0.35-0.17
		c1.09-4.21,2.17-8.42,3.26-12.63c-0.09-0.03-0.18-0.05-0.27-0.08c-1.3,4.66-2.6,9.31-3.9,13.97c-0.1-0.03-0.19-0.06-0.29-0.09
		c0.46-1.89,0.87-3.8,1.4-5.68c0.85-3.05,1.77-6.08,2.67-9.12c0.28-0.93,0.05-1.65-0.83-2.11c-0.32-0.17-0.67-0.28-0.94-0.39
		c-3.07,3.58-6.19,7.22-9.51,11.08c1.03-2.61,1.95-4.96,2.88-7.31c-0.08-0.03-0.16-0.06-0.24-0.1c-1.41,3.29-2.81,6.58-4.22,9.88
		c-0.12-0.05-0.24-0.1-0.36-0.15c0.05-0.16,0.09-0.33,0.15-0.48c1.43-3.46,2.83-6.92,4.29-10.37c0.85-2,1.79-3.96,2.65-5.96
		c0.46-1.07,0.45-2.12-0.5-2.99c-0.22-0.2-0.52-0.33-0.68-0.57c-0.84-1.18-1.46-1.37-2.49-0.4c-2.82,2.68-5.59,5.4-8.33,8.16
		c-0.45,0.45-0.51,1.26-0.93,1.77c-2.2,2.62-4.46,5.2-6.69,7.79c-0.07,0.09-0.17,0.15-0.26,0.23c-0.03-0.03-0.08-0.07-0.11-0.1
		c1.3-2.51,2.6-5.01,3.9-7.51c-0.11-0.06-0.23-0.12-0.34-0.18c-1.9,3.63-3.8,7.26-5.7,10.9c0.4-1.25,0.89-2.47,1.52-3.61
		c1.8-3.23,3.65-6.45,5.54-9.63c0.45-0.75-0.01-1.22-0.27-1.75c-0.08-0.18-0.48-0.2-0.81-0.33c-0.12-0.71-0.69-1.53-1.5-1.61
		c-0.54-0.05-1.3,0.21-1.66,0.61c-1,1.1-1.99,2.26-2.74,3.54c-3.46,5.83-5.27,12.27-6.63,18.84c-0.33,1.62-0.61,3.34,0.87,4.7
		c0.12,0.11,0.05,0.41,0.12,0.61c0.29,0.87,1.47,1,2.19,0.52c0.94-0.62,0.81-1.67,1.29-2.44c3.72-5.97,7.69-11.78,12.19-17.19
		c0.97-1.17,2.13-2.18,3.1-3.15c-0.13,0.17-0.35,0.46-0.57,0.77c0.04,0.03,0.07,0.07,0.11,0.11c0.38-0.35,0.77-0.7,1.14-1.06
		c-2.46,5.04-3.96,10.33-4.99,15.77c-0.33,1.73,0.1,3.05,1.66,4.02c1.86,1.16,2.04,1.12,3.21-0.71c2.71-4.24,5.46-8.45,8.21-12.66
		c0.44-0.67,0.96-1.3,1.44-1.95c-0.3,1.57-0.83,3.02-1.16,4.51c-0.45,1.97-0.8,3.97-1.05,5.98c-0.07,0.55,0.23,1.37,0.66,1.69
		c0.96,0.75,2.09,1.3,3.19,1.83c0.2,0.1,0.61-0.23,0.92-0.38c0.02-0.01,0.01-0.11,0.01-0.18c-0.24,0.08-0.49,0.15-0.78,0.23
		c0.02-0.17,0.01-0.27,0.04-0.3c3.26-2.76,4.68-6.67,6.51-10.32C190.75,362.59,189.65,362.71,189.64,362.17z M154.07,362.74
		c2.95-3.83,5.98-7.61,7.93-12.08C159.36,354.69,156.72,358.72,154.07,362.74 M151.68,353.45c-0.26-0.53-0.64-0.97-0.66-1.43
		c-0.04-0.67,0.07-1.4,0.3-2.04c1.15-3.18,2.21-6.4,3.6-9.48c1.83-4.05,3.94-7.98,5.91-11.96c0.15-0.3,0.22-0.64,0.32-0.96
		c-0.1-0.04-0.2-0.08-0.3-0.12c-0.66,1.14-1.32,2.29-2.04,3.53c-0.07-0.22-0.1-0.26-0.09-0.28c0.42-0.86,0.95-1.69,1.24-2.59
		c0.21-0.64,1.08-0.95,0.29-2.14c-1.13-1.7-2.03-2.22-3.47-0.68c-0.34,0.36-0.71,0.73-0.94,1.15c-1.23,2.21-2.58,4.36-3.58,6.67
		c-2.02,4.66-3.82,9.42-4.89,14.42C146.64,350.93,149.12,352.76,151.68,353.45z M161.51,350.25c-0.75-1.01-1.13-0.56-1.6,0.12
		c-4.33,6.4-9.19,12.37-14.46,18.03c-0.55,0.58-1.14,1.12-1.71,1.69c0.07-0.77,0.24-1.45,0.5-2.1c1.33-3.31,2.68-6.6,4-9.91
		c0.21-0.52,0.22-1.12,0.35-1.88c-0.38,0.18-0.47,0.19-0.5,0.23c-0.15,0.24-0.29,0.49-0.42,0.74c-2.12,4.08-3.49,8.41-4.54,12.86
		c-0.09,0.4-0.39,0.75-0.6,1.11c-0.13-0.06-0.27-0.12-0.4-0.18c0.6-2,1.1-4.03,1.83-5.99c1-2.67,2.19-5.26,3.24-7.91
		c0.22-0.57,0.53-1.45,0.27-1.8c-0.5-0.67-1.31-1.29-2.11-1.5c-0.38-0.1-1.17,0.69-1.51,1.25c-2.46,4.06-4.1,8.46-4.81,13.15
		c-0.26,1.71-0.42,3.52,1.25,4.81c2.6,2.01,2.94,1.78,4.78-0.26c2.32-2.56,4.57-5.22,6.61-8c3.14-4.28,6.1-8.7,9.11-13.07
		C161.13,351.21,161.31,350.67,161.51,350.25z M129.67,361.17c-0.12-0.01-0.24-0.02-0.37-0.03c0.16-1.24,0.32-2.48,0.47-3.73
		c0.08,0.01,0.16,0.02,0.24,0.03C129.9,358.68,129.78,359.93,129.67,361.17 M142.52,343.81c-1.07-0.69-2.22-0.61-3.32,0.1
		c-4.78,3.08-8.43,7.11-10.38,12.53c-1.03,2.86-0.74,5.64,0.98,8.17c0.98,1.44,2.12,2.77,3.24,4.1c1.23,1.46,1.28,1.77-0.24,2.99
		c-2.85,2.29-6.08,3.68-9.75,4c-1.12,0.1-2.23,0.22-2.56-1.27c-0.02-0.08-0.15-0.12-0.29-0.24c-0.17,0.32-0.32,0.59-0.4,0.76
		c-0.23-0.56-0.46-1.13-0.75-1.82c-0.89,0.74-1.43,1.4-0.99,2.23c1.16,2.24,2.87,4.06,5.35,4.67c1.32,0.32,2.84,0.02,4.23-0.23
		c2.79-0.5,5.44-1.48,7.85-2.99c0.66-0.41,1.18-1.03,1.77-1.55c-0.07-0.07-0.14-0.13-0.21-0.2c-3.33,3.44-12.03,5.86-15.11,4.09
		c0.74,0.05,1.26,0.11,1.79,0.11c3.78-0.03,7.34-1,10.63-2.8c3.72-2.04,4.04-3.27,1.48-7c-0.85-1.22-1.94-2.28-2.99-3.35
		c-1.61-1.65-1.88-3.56-1.11-5.62c2-5.36,5.63-9.43,10.2-12.74c0.67-0.48,1.32-0.83,2.03,0.05c0.12-0.33,0.27-0.52,0.26-0.71
		C144.18,345.74,143.67,344.56,142.52,343.81 M62.59,364.18c12.82-3.17,25.82-5.24,39.06-5.59
		C93.78,357.93,65.51,362.01,62.59,364.18 M106.45,359.36c-2.35-0.09-4.71-0.21-7.06-0.16c-6.61,0.13-13.18,0.9-19.68,2.03
		c-5.47,0.95-10.9,2.18-16.33,3.35c-1.81,0.39-1.96,0.94-1.55,2.76c0.23,1.03,0.66,1.24,1.62,0.97c10.92-3.11,22.09-4.72,33.41-5.57
		c2.75-0.1,5.49-0.19,8.24-0.29c0.89-0.03,2.09,0.36,1.93-1.28c-0.01-0.06,0.16-0.12,0.22-0.21
		C107.78,360.17,107.42,359.39,106.45,359.36"/>
</g>
</svg>
