<?xml version="1.0" standalone="no"?>
<!DOCTYPE svg PUBLIC "-//W3C//DTD SVG 20010904//EN"
 "http://www.w3.org/TR/2001/REC-SVG-20010904/DTD/svg10.dtd">
<svg version="1.0" xmlns="http://www.w3.org/2000/svg"
 width="1104.000000pt" height="1104.000000pt" viewBox="0 0 1104.000000 1104.000000"
 preserveAspectRatio="xMidYMid meet">
<metadata>
Created by potrace 1.14, written by Peter Selinger 2001-2017
</metadata>
<g transform="translate(0.000000,1104.000000) scale(0.100000,-0.100000)"
fill="#000000" stroke="none">
<path d="M3765 7980 c0 -759 -3 -1380 -6 -1380 -3 0 -39 16 -80 36 -41 20 -78
37 -84 39 -5 1 -23 7 -40 14 -45 19 -293 90 -335 96 -8 1 -28 5 -45 9 -49 11
-147 27 -185 31 -19 2 -64 7 -100 11 -84 10 -391 10 -495 0 -68 -6 -152 -19
-275 -41 -92 -17 -216 -50 -325 -87 -49 -16 -94 -31 -100 -32 -5 -2 -32 -13
-58 -24 -27 -12 -51 -22 -53 -22 -6 0 -231 -113 -279 -140 -44 -25 -199 -125
-218 -140 -7 -6 -30 -24 -52 -40 -22 -17 -49 -38 -61 -48 -11 -9 -43 -35 -69
-57 -60 -49 -224 -214 -285 -286 -53 -62 -154 -197 -191 -254 -84 -129 -99
-154 -99 -159 0 -4 -11 -23 -24 -44 -12 -20 -27 -48 -31 -62 -4 -14 -11 -27
-15 -30 -28 -21 -174 -427 -194 -545 -3 -16 -10 -45 -15 -63 -5 -18 -10 -33
-9 -35 0 -1 -3 -22 -6 -47 -4 -25 -9 -61 -12 -80 -16 -109 -19 -173 -18 -345
1 -174 6 -278 17 -330 3 -11 8 -42 12 -70 16 -113 86 -376 125 -470 8 -18 21
-53 25 -65 22 -64 128 -275 187 -370 33 -52 65 -104 71 -115 7 -11 14 -22 17
-25 3 -3 17 -21 30 -40 98 -143 325 -380 486 -507 106 -83 266 -193 283 -193
5 0 11 -4 13 -9 5 -15 267 -145 378 -188 58 -22 114 -44 125 -48 11 -4 29 -10
40 -12 11 -1 29 -7 40 -12 21 -9 93 -30 127 -36 11 -2 28 -7 38 -10 10 -3 29
-8 42 -10 13 -3 34 -7 48 -10 53 -11 77 -15 125 -21 28 -4 53 -8 56 -10 30
-17 494 -25 624 -10 39 4 86 9 105 11 39 3 157 24 232 41 15 3 30 5 33 5 2 0
23 6 45 14 22 8 42 14 45 15 3 0 6 0 8 1 1 0 13 3 27 5 39 7 216 72 327 120
186 80 342 171 518 303 127 95 135 101 285 251 151 151 169 173 317 376 16 20
33 49 40 64 4 8 9 17 12 20 14 12 61 90 54 90 -5 0 -3 4 3 8 31 19 228 474
223 512 0 3 5 19 11 35 7 17 13 37 15 45 2 8 12 53 23 100 11 47 23 101 25
120 3 19 8 55 12 80 3 25 8 59 11 75 2 17 6 121 9 231 2 111 5 206 6 210 1 5
1 11 0 14 -6 19 -5 700 1 700 4 0 5 7 1 16 -9 24 -9 224 0 224 5 0 5 5 2 11
-4 6 -7 901 -8 1990 l0 1979 -766 0 -766 0 0 -1380z m-925 -2624 c19 -4 42 -9
50 -12 8 -3 26 -8 40 -10 82 -15 290 -104 328 -141 7 -7 17 -13 22 -13 22 0
191 -152 255 -231 53 -64 127 -196 166 -294 16 -42 37 -120 55 -205 9 -47 10
-316 0 -360 -15 -74 -38 -156 -53 -190 -44 -103 -68 -150 -75 -150 -5 0 -7 -4
-3 -9 3 -5 1 -12 -5 -16 -6 -3 -25 -30 -44 -59 -19 -29 -67 -87 -107 -129 -70
-72 -184 -167 -200 -167 -4 0 -14 -6 -21 -13 -17 -17 -170 -93 -180 -89 -5 1
-8 -2 -8 -6 0 -5 -6 -9 -12 -10 -7 -1 -56 -13 -108 -27 -52 -14 -111 -28 -130
-32 -42 -7 -250 -7 -300 0 -259 36 -482 147 -666 332 -516 519 -375 1369 286
1719 59 31 192 82 237 91 16 3 53 11 83 18 57 14 321 15 390 3z"/>
<path d="M8414 9336 c-6 -6 -13 -16 -15 -22 -3 -8 -124 -202 -221 -356 -15
-24 -33 -54 -41 -68 -14 -26 -195 -316 -252 -405 -35 -55 -180 -289 -198 -320
-7 -11 -14 -22 -17 -25 -10 -10 -41 -65 -47 -82 -3 -10 -9 -18 -13 -18 -4 0
-13 -13 -20 -30 -7 -16 -16 -30 -21 -30 -5 0 -9 -4 -9 -9 0 -5 -79 -137 -176
-293 -98 -156 -214 -344 -260 -418 -46 -74 -87 -140 -92 -145 -5 -6 -27 -42
-50 -80 -23 -39 -73 -119 -111 -180 -39 -60 -85 -136 -103 -167 -18 -32 -36
-58 -40 -58 -5 0 -8 -6 -8 -13 0 -7 -7 -22 -15 -32 -8 -11 -65 -101 -126 -200
-62 -99 -132 -211 -158 -250 -25 -38 -52 -82 -60 -97 -7 -16 -17 -28 -22 -28
-5 0 -9 -6 -9 -14 0 -8 -6 -21 -12 -28 -61 -67 -346 -685 -363 -788 0 -3 -6
-21 -13 -40 -6 -19 -13 -47 -16 -62 -3 -15 -7 -31 -10 -36 -3 -5 -8 -24 -11
-43 -3 -19 -11 -54 -16 -79 -23 -100 -29 -134 -43 -260 -4 -30 -9 -73 -11 -95
-6 -44 -5 -355 0 -425 6 -81 19 -193 29 -245 5 -25 17 -117 18 -130 0 -5 4
-18 10 -28 5 -11 12 -35 14 -54 3 -19 9 -44 15 -54 5 -10 7 -19 5 -19 -3 0 1
-18 9 -40 8 -22 12 -40 9 -40 -2 0 2 -13 11 -30 8 -16 15 -32 15 -35 0 -12 12
-48 31 -90 5 -11 18 -45 29 -75 25 -70 150 -315 197 -389 85 -131 147 -218
228 -317 53 -65 260 -272 310 -309 21 -17 50 -40 64 -53 29 -26 207 -148 271
-186 77 -44 280 -146 280 -140 0 4 6 2 13 -3 10 -8 78 -36 212 -86 17 -6 35
-12 41 -13 6 -1 38 -10 70 -19 33 -10 66 -19 74 -20 8 -2 15 -4 15 -5 0 -1 7
-3 15 -5 8 -1 40 -7 70 -14 326 -65 652 -74 944 -26 84 14 105 17 161 29 53
11 159 41 240 68 50 16 95 31 100 32 6 1 26 9 45 18 19 9 58 26 85 38 100 45
171 81 220 110 28 16 64 37 80 46 91 51 312 213 385 283 26 25 75 71 107 102
80 76 165 174 245 282 37 51 71 97 76 102 7 9 66 105 105 170 39 67 171 347
182 388 2 4 3 8 5 10 1 1 3 9 5 17 2 8 16 49 30 90 30 86 76 269 90 355 2 17
7 44 9 60 23 134 30 252 30 470 0 172 -7 350 -14 350 -2 0 -7 33 -13 85 -3 25
-13 77 -22 115 -8 39 -17 79 -19 90 -5 25 -35 135 -42 155 -3 8 -4 15 -3 15 1
0 -3 10 -10 23 -7 13 -14 31 -16 40 -10 50 -134 315 -194 412 -12 19 -24 43
-27 53 -4 9 -10 17 -15 17 -5 0 -9 5 -9 10 0 19 -151 227 -225 310 -67 76
-207 213 -260 255 -27 22 -52 43 -55 46 -13 14 -181 129 -189 129 -5 0 -11 4
-13 8 -6 16 -228 130 -343 177 -152 61 -311 108 -408 121 -22 2 -43 7 -47 9
-43 27 -530 25 -637 -1 -18 -5 -22 -3 -17 10 3 9 9 16 13 16 3 0 15 17 26 38
11 20 22 39 25 42 3 3 35 50 70 105 51 80 204 315 273 419 6 10 20 29 30 41 9
13 17 25 17 28 0 3 44 72 98 154 54 81 120 182 147 223 26 41 90 138 140 215
148 225 259 396 300 460 21 33 41 62 45 65 4 3 13 15 19 28 14 27 185 291 242
374 21 31 39 61 39 67 0 6 4 11 8 11 4 0 16 15 27 33 10 17 45 72 77 120 32
49 58 90 58 92 0 2 -379 4 -842 4 -655 0 -845 -3 -854 -13z m174 -3970 c5 -3
22 -8 38 -10 57 -11 70 -14 134 -36 188 -65 406 -226 508 -375 15 -22 30 -41
35 -43 4 -2 7 -10 7 -17 0 -7 3 -15 8 -17 12 -5 79 -138 97 -193 9 -28 19 -57
22 -65 8 -18 7 -17 18 -60 11 -46 16 -77 19 -121 2 -20 6 -41 9 -45 9 -15 -1
-267 -12 -302 -5 -18 -10 -35 -10 -37 0 -3 -2 -18 -5 -33 -4 -15 -8 -36 -10
-47 -13 -68 -92 -237 -150 -325 -44 -66 -44 -66 -136 -160 -118 -120 -273
-221 -385 -250 -5 -1 -21 -7 -35 -12 -14 -5 -46 -13 -72 -18 -159 -31 -256
-32 -433 -6 -67 10 -252 79 -266 99 -3 5 -10 9 -15 9 -9 0 -89 45 -109 60
-139 110 -236 220 -313 357 -43 76 -82 169 -82 193 0 9 -4 19 -9 22 -5 3 -19
50 -32 103 -18 78 -23 128 -23 243 -1 172 6 228 46 350 24 77 86 212 100 221
5 3 10 10 10 15 1 12 60 98 70 102 4 2 8 8 8 13 0 12 143 156 188 189 19 14
39 30 45 36 12 10 37 24 107 60 19 10 37 20 40 23 15 17 189 69 260 78 25 3
47 7 48 8 6 6 270 -3 280 -9z"/>
</g>
</svg>
