<svg width="294" height="249" viewBox="0 0 294 249" fill="none" xmlns="http://www.w3.org/2000/svg">
<path d="M244.31 49.8501C244.31 43.278 246.921 36.9751 251.568 32.328C256.215 27.6808 262.518 25.0701 269.09 25.0701C269.09 28.3243 268.449 31.5465 267.204 34.553C265.958 37.5594 264.133 40.2912 261.832 42.5922C259.531 44.8932 256.799 46.7185 253.793 47.9638C250.786 49.2091 247.564 49.8501 244.31 49.8501Z" fill="#04C8BD"/>
<path d="M269.09 25.0701C269.09 21.8159 269.731 18.5936 270.976 15.5872C272.222 12.5807 274.047 9.84898 276.348 7.54794C278.649 5.24691 281.381 3.42164 284.387 2.17633C287.394 0.931019 290.616 0.29007 293.87 0.29007C293.87 6.86213 291.259 13.165 286.612 17.8122C281.965 22.4593 275.662 25.0701 269.09 25.0701Z" fill="#325B90"/>
<path d="M244.31 0.300049C250.882 0.300049 257.185 2.91083 261.832 7.55798C266.479 12.2051 269.09 18.508 269.09 25.0801C262.518 25.0801 256.215 22.4694 251.568 17.8222C246.921 13.1751 244.31 6.87211 244.31 0.300049Z" fill="#325B90"/>
<path d="M269.09 25.0799C272.344 25.0799 275.566 25.7208 278.573 26.9661C281.579 28.2114 284.311 30.0367 286.612 32.3378C288.913 34.6388 290.738 37.3706 291.984 40.377C293.229 43.3835 293.87 46.6057 293.87 49.8599C290.616 49.8599 287.394 49.2189 284.387 47.9736C281.381 46.7283 278.649 44.903 276.348 42.602C274.047 40.301 272.222 37.5693 270.976 34.5628C269.731 31.5564 269.09 28.3341 269.09 25.0799Z" fill="#325B90"/>
<path d="M244.27 198.67H219.47V248.28H244.27V198.67Z" fill="#FDB90C"/>
<path d="M293.89 49.8501H262V50.0001C262.003 54.1781 262.829 58.3145 264.433 62.1726C266.036 66.0307 268.385 69.5346 271.344 72.4838C274.304 75.433 277.816 77.7695 281.679 79.3595C285.543 80.9496 289.682 81.7619 293.86 81.7501L293.89 49.8501Z" fill="#2A7EE2"/>
<path d="M219.2 45.6899C220.324 45.6926 221.401 46.1401 222.195 46.9347C222.99 47.7293 223.437 48.8062 223.44 49.9299C223.437 51.0536 222.99 52.1306 222.195 52.9251C221.401 53.7197 220.324 54.1673 219.2 54.17C218.077 54.1647 217.002 53.7163 216.208 52.9223C215.414 52.1283 214.965 51.0528 214.96 49.9299C214.965 48.807 215.414 47.7316 216.208 46.9376C217.002 46.1436 218.077 45.6952 219.2 45.6899Z" fill="#2A7EE2"/>
<path d="M215.13 74.6799C215.135 73.557 215.584 72.4816 216.378 71.6876C217.172 70.8936 218.247 70.4452 219.37 70.4399C220.493 70.4452 221.568 70.8936 222.362 71.6876C223.156 72.4816 223.605 73.557 223.61 74.6799C223.607 75.8036 223.16 76.8806 222.365 77.6751C221.571 78.4697 220.494 78.9173 219.37 78.92C218.246 78.9173 217.169 78.4697 216.375 77.6751C215.58 76.8806 215.133 75.8036 215.13 74.6799Z" fill="#2A7EE2"/>
<path d="M194.61 149.06H244.28V99.3901H194.61V149.06Z" fill="#325B90"/>
<path d="M144.96 198.67H194.57V149.06H144.96V198.67Z" fill="#04C8BD"/>
<path d="M157.33 186.31H182.22V161.42H157.33V186.31Z" fill="#2A7EE2"/>
<path d="M95.47 248.27H145.08V198.66H95.47V248.27Z" fill="#FDB90C"/>
<path d="M41.6 205.06C41.6 205.544 41.4563 206.018 41.1871 206.421C40.9179 206.824 40.5353 207.138 40.0876 207.323C39.6399 207.509 39.1473 207.557 38.6721 207.463C38.1968 207.368 37.7603 207.135 37.4176 206.792C37.075 206.45 36.8416 206.013 36.7471 205.538C36.6526 205.063 36.7011 204.57 36.8865 204.122C37.0719 203.675 37.386 203.292 37.7889 203.023C38.1918 202.754 38.6655 202.61 39.15 202.61C39.7998 202.61 40.4229 202.868 40.8824 203.327C41.3419 203.787 41.6 204.41 41.6 205.06Z" fill="#04C8BD"/>
<path d="M41.6 214C41.6 214.485 41.4563 214.958 41.1871 215.361C40.9179 215.764 40.5353 216.078 40.0876 216.264C39.6399 216.449 39.1473 216.498 38.6721 216.403C38.1968 216.308 37.7603 216.075 37.4176 215.732C37.075 215.39 36.8416 214.953 36.7471 214.478C36.6526 214.003 36.7011 213.51 36.8865 213.062C37.0719 212.615 37.386 212.232 37.7889 211.963C38.1918 211.694 38.6655 211.55 39.15 211.55C39.4718 211.55 39.7904 211.613 40.0876 211.737C40.3849 211.86 40.6549 212.04 40.8824 212.268C41.1099 212.495 41.2904 212.765 41.4135 213.062C41.5367 213.36 41.6 213.678 41.6 214Z" fill="#04C8BD"/>
<path d="M41.6 223C41.602 223.485 41.46 223.96 41.192 224.364C40.924 224.768 40.5421 225.084 40.0946 225.271C39.6471 225.458 39.1541 225.508 38.6782 225.414C38.2023 225.321 37.7648 225.088 37.4212 224.746C37.0775 224.404 36.8432 223.967 36.7479 223.492C36.6525 223.016 36.7005 222.523 36.8856 222.075C37.0707 221.627 37.3848 221.243 37.7879 220.974C38.191 220.704 38.6651 220.56 39.1501 220.56C39.7981 220.56 40.4198 220.817 40.8789 221.274C41.3381 221.731 41.5974 222.352 41.6 223Z" fill="#04C8BD"/>
<path d="M41.6 231.93C41.6 232.415 41.4563 232.888 41.1871 233.291C40.9179 233.694 40.5353 234.008 40.0876 234.193C39.6399 234.379 39.1473 234.427 38.6721 234.333C38.1968 234.238 37.7603 234.005 37.4176 233.662C37.075 233.32 36.8416 232.883 36.7471 232.408C36.6526 231.933 36.7011 231.44 36.8865 230.992C37.0719 230.545 37.386 230.162 37.7889 229.893C38.1918 229.624 38.6655 229.48 39.15 229.48C39.7998 229.48 40.4229 229.738 40.8824 230.198C41.3419 230.657 41.6 231.28 41.6 231.93Z" fill="#04C8BD"/>
<path d="M41.6 240.88C41.602 241.365 41.46 241.84 41.192 242.244C40.924 242.648 40.5421 242.964 40.0946 243.151C39.6471 243.338 39.1541 243.387 38.6782 243.294C38.2023 243.201 37.7648 242.968 37.4212 242.626C37.0775 242.284 36.8432 241.847 36.7479 241.372C36.6525 240.896 36.7005 240.403 36.8856 239.955C37.0707 239.506 37.3848 239.123 37.7879 238.854C38.191 238.584 38.6651 238.44 39.1501 238.44C39.7981 238.44 40.4198 238.697 40.8789 239.154C41.3381 239.611 41.5974 240.232 41.6 240.88Z" fill="#04C8BD"/>
<path d="M32.62 205.06C32.62 205.544 32.4763 206.018 32.2071 206.421C31.9379 206.824 31.5552 207.138 31.1076 207.323C30.6599 207.509 30.1673 207.557 29.692 207.463C29.2168 207.368 28.7802 207.135 28.4376 206.792C28.0949 206.45 27.8616 206.013 27.7671 205.538C27.6726 205.063 27.7211 204.57 27.9065 204.122C28.092 203.675 28.406 203.292 28.8089 203.023C29.2118 202.754 29.6854 202.61 30.17 202.61C30.8198 202.61 31.443 202.868 31.9024 203.327C32.3619 203.787 32.62 204.41 32.62 205.06Z" fill="#04C8BD"/>
<path d="M32.62 214C32.62 214.485 32.4763 214.958 32.2071 215.361C31.9379 215.764 31.5552 216.078 31.1076 216.264C30.6599 216.449 30.1673 216.498 29.692 216.403C29.2168 216.308 28.7802 216.075 28.4376 215.732C28.0949 215.39 27.8616 214.953 27.7671 214.478C27.6726 214.003 27.7211 213.51 27.9065 213.062C28.092 212.615 28.406 212.232 28.8089 211.963C29.2118 211.694 29.6854 211.55 30.17 211.55C30.4917 211.55 30.8103 211.613 31.1076 211.737C31.4048 211.86 31.6749 212.04 31.9024 212.268C32.1299 212.495 32.3104 212.765 32.4336 213.062C32.5567 213.36 32.62 213.678 32.62 214Z" fill="#04C8BD"/>
<path d="M32.62 223C32.622 223.485 32.48 223.96 32.212 224.364C31.944 224.768 31.562 225.084 31.1145 225.271C30.667 225.458 30.1741 225.508 29.6982 225.414C29.2223 225.321 28.7848 225.088 28.4412 224.746C28.0975 224.404 27.8632 223.967 27.7678 223.492C27.6725 223.016 27.7205 222.523 27.9056 222.075C28.0907 221.627 28.4047 221.243 28.8078 220.974C29.2109 220.704 29.685 220.56 30.17 220.56C30.818 220.56 31.4397 220.817 31.8989 221.274C32.3581 221.731 32.6174 222.352 32.62 223Z" fill="#04C8BD"/>
<path d="M32.62 231.93C32.62 232.415 32.4763 232.888 32.2071 233.291C31.9379 233.694 31.5552 234.008 31.1076 234.193C30.6599 234.379 30.1673 234.427 29.692 234.333C29.2168 234.238 28.7802 234.005 28.4376 233.662C28.0949 233.32 27.8616 232.883 27.7671 232.408C27.6726 231.933 27.7211 231.44 27.9065 230.992C28.092 230.545 28.406 230.162 28.8089 229.893C29.2118 229.624 29.6854 229.48 30.17 229.48C30.8198 229.48 31.443 229.738 31.9024 230.198C32.3619 230.657 32.62 231.28 32.62 231.93Z" fill="#04C8BD"/>
<path d="M32.62 240.88C32.622 241.365 32.48 241.84 32.212 242.244C31.944 242.648 31.562 242.964 31.1145 243.151C30.667 243.338 30.1741 243.387 29.6982 243.294C29.2223 243.201 28.7848 242.968 28.4412 242.626C28.0975 242.284 27.8632 241.847 27.7678 241.372C27.6725 240.896 27.7205 240.403 27.9056 239.955C28.0907 239.506 28.4047 239.123 28.8078 238.854C29.2109 238.584 29.685 238.44 30.17 238.44C30.818 238.44 31.4397 238.697 31.8989 239.154C32.3581 239.611 32.6174 240.232 32.62 240.88Z" fill="#04C8BD"/>
<path d="M23.63 205.06C23.63 205.544 23.4863 206.018 23.2171 206.421C22.9479 206.824 22.5652 207.138 22.1175 207.323C21.6698 207.509 21.1772 207.557 20.702 207.463C20.2267 207.368 19.7902 207.135 19.4475 206.792C19.1049 206.45 18.8716 206.013 18.7771 205.538C18.6825 205.063 18.731 204.57 18.9165 204.122C19.1019 203.675 19.4159 203.292 19.8188 203.023C20.2217 202.754 20.6954 202.61 21.18 202.61C21.5021 202.609 21.8213 202.671 22.1191 202.794C22.4169 202.916 22.6875 203.097 22.9153 203.325C23.1431 203.552 23.3235 203.823 23.4462 204.121C23.5688 204.419 23.6313 204.738 23.63 205.06Z" fill="#04C8BD"/>
<path d="M23.63 214C23.63 214.485 23.4863 214.958 23.2171 215.361C22.9479 215.764 22.5652 216.078 22.1175 216.264C21.6698 216.449 21.1772 216.498 20.702 216.403C20.2267 216.308 19.7902 216.075 19.4475 215.732C19.1049 215.39 18.8716 214.953 18.7771 214.478C18.6825 214.003 18.731 213.51 18.9165 213.062C19.1019 212.615 19.4159 212.232 19.8188 211.963C20.2217 211.694 20.6954 211.55 21.18 211.55C21.5017 211.55 21.8203 211.613 22.1175 211.737C22.4148 211.86 22.6849 212.04 22.9124 212.268C23.1399 212.495 23.3203 212.765 23.4434 213.062C23.5666 213.36 23.63 213.678 23.63 214Z" fill="#04C8BD"/>
<path d="M23.63 223C23.632 223.485 23.49 223.96 23.222 224.364C22.954 224.768 22.572 225.084 22.1245 225.271C21.677 225.458 21.1841 225.508 20.7082 225.414C20.2322 225.321 19.7948 225.088 19.4511 224.746C19.1075 224.404 18.8731 223.967 18.7778 223.492C18.6825 223.016 18.7304 222.523 18.9155 222.075C19.1006 221.627 19.4147 221.243 19.8178 220.974C20.2209 220.704 20.695 220.56 21.18 220.56C21.5012 220.559 21.8196 220.621 22.1168 220.743C22.414 220.865 22.6841 221.044 22.9118 221.271C23.1394 221.498 23.32 221.767 23.4433 222.064C23.5665 222.361 23.63 222.679 23.63 223Z" fill="#04C8BD"/>
<path d="M23.63 231.93C23.63 232.415 23.4863 232.888 23.2171 233.291C22.9479 233.694 22.5652 234.008 22.1175 234.193C21.6698 234.379 21.1772 234.427 20.702 234.333C20.2267 234.238 19.7902 234.005 19.4475 233.662C19.1049 233.32 18.8716 232.883 18.7771 232.408C18.6825 231.933 18.731 231.44 18.9165 230.992C19.1019 230.545 19.4159 230.162 19.8188 229.893C20.2217 229.624 20.6954 229.48 21.18 229.48C21.8297 229.48 22.4529 229.738 22.9124 230.198C23.3718 230.657 23.63 231.28 23.63 231.93Z" fill="#04C8BD"/>
<path d="M23.63 240.88C23.632 241.365 23.49 241.84 23.222 242.244C22.954 242.648 22.572 242.964 22.1245 243.151C21.677 243.338 21.1841 243.387 20.7082 243.294C20.2322 243.201 19.7948 242.968 19.4511 242.626C19.1075 242.284 18.8731 241.847 18.7778 241.372C18.6825 240.896 18.7304 240.403 18.9155 239.955C19.1006 239.506 19.4147 239.123 19.8178 238.854C20.2209 238.584 20.695 238.44 21.18 238.44C21.5012 238.439 21.8196 238.501 22.1168 238.623C22.414 238.745 22.6841 238.924 22.9118 239.151C23.1394 239.378 23.32 239.647 23.4433 239.944C23.5665 240.241 23.63 240.559 23.63 240.88Z" fill="#04C8BD"/>
<path d="M14.65 205.06C14.65 205.544 14.5063 206.018 14.2371 206.421C13.9679 206.824 13.5853 207.138 13.1376 207.323C12.6899 207.509 12.1973 207.557 11.7221 207.463C11.2468 207.368 10.8102 207.135 10.4676 206.792C10.125 206.45 9.8916 206.013 9.79707 205.538C9.70253 205.063 9.7511 204.57 9.93653 204.122C10.122 203.675 10.436 203.292 10.8389 203.023C11.2418 202.754 11.7155 202.61 12.2 202.61C12.5218 202.61 12.8403 202.673 13.1376 202.796C13.4348 202.92 13.7049 203.1 13.9324 203.327C14.1599 203.555 14.3404 203.825 14.4635 204.122C14.5866 204.42 14.65 204.738 14.65 205.06Z" fill="#04C8BD"/>
<path d="M14.65 214C14.65 214.485 14.5063 214.958 14.2371 215.361C13.9679 215.764 13.5853 216.078 13.1376 216.264C12.6899 216.449 12.1973 216.498 11.7221 216.403C11.2468 216.308 10.8102 216.075 10.4676 215.732C10.125 215.39 9.8916 214.953 9.79707 214.478C9.70253 214.003 9.7511 213.51 9.93653 213.062C10.122 212.615 10.436 212.232 10.8389 211.963C11.2418 211.694 11.7155 211.55 12.2 211.55C12.5218 211.55 12.8403 211.613 13.1376 211.737C13.4348 211.86 13.7049 212.04 13.9324 212.268C14.1599 212.495 14.3404 212.765 14.4635 213.062C14.5866 213.36 14.65 213.678 14.65 214Z" fill="#04C8BD"/>
<path d="M14.65 223C14.652 223.485 14.5099 223.96 14.2419 224.364C13.9739 224.768 13.592 225.084 13.1445 225.271C12.697 225.458 12.2041 225.508 11.7282 225.414C11.2523 225.321 10.8147 225.088 10.4711 224.746C10.1275 224.404 9.89317 223.967 9.79782 223.492C9.70247 223.016 9.75038 222.523 9.93552 222.075C10.1207 221.627 10.4347 221.243 10.8378 220.974C11.2409 220.704 11.715 220.56 12.2 220.56C12.848 220.56 13.4697 220.817 13.9289 221.274C14.388 221.731 14.6473 222.352 14.65 223Z" fill="#04C8BD"/>
<path d="M14.65 231.93C14.65 232.415 14.5063 232.888 14.2371 233.291C13.9679 233.694 13.5853 234.008 13.1376 234.193C12.6899 234.379 12.1973 234.427 11.7221 234.333C11.2468 234.238 10.8102 234.005 10.4676 233.662C10.125 233.32 9.8916 232.883 9.79707 232.408C9.70253 231.933 9.7511 231.44 9.93653 230.992C10.122 230.545 10.436 230.162 10.8389 229.893C11.2418 229.624 11.7155 229.48 12.2 229.48C12.5218 229.48 12.8403 229.543 13.1376 229.667C13.4348 229.79 13.7049 229.97 13.9324 230.198C14.1599 230.425 14.3404 230.695 14.4635 230.992C14.5866 231.29 14.65 231.608 14.65 231.93Z" fill="#04C8BD"/>
<path d="M14.65 240.88C14.652 241.365 14.5099 241.84 14.2419 242.244C13.9739 242.648 13.592 242.964 13.1445 243.151C12.697 243.338 12.2041 243.387 11.7282 243.294C11.2523 243.201 10.8147 242.968 10.4711 242.626C10.1275 242.284 9.89317 241.847 9.79782 241.372C9.70247 240.896 9.75038 240.403 9.93552 239.955C10.1207 239.506 10.4347 239.123 10.8378 238.854C11.2409 238.584 11.715 238.44 12.2 238.44C12.848 238.44 13.4697 238.697 13.9289 239.154C14.388 239.611 14.6473 240.232 14.65 240.88Z" fill="#04C8BD"/>
<path d="M5.66 205.06C5.66 205.544 5.5163 206.018 5.24709 206.421C4.97788 206.824 4.59528 207.138 4.14761 207.323C3.69993 207.509 3.20733 207.557 2.73208 207.463C2.25683 207.368 1.82026 207.135 1.47762 206.792C1.13498 206.45 0.901625 206.013 0.807091 205.538C0.712557 205.063 0.76106 204.57 0.946495 204.122C1.13193 203.675 1.446 203.292 1.8489 203.023C2.2518 202.754 2.72548 202.61 3.21004 202.61C3.53215 202.609 3.85129 202.671 4.14913 202.794C4.44698 202.916 4.71763 203.097 4.9454 203.325C5.17316 203.552 5.35356 203.823 5.47622 204.121C5.59887 204.419 5.66132 204.738 5.66 205.06Z" fill="#04C8BD"/>
<path d="M5.66 214C5.66 214.485 5.5163 214.958 5.24709 215.361C4.97788 215.764 4.59528 216.078 4.14761 216.264C3.69993 216.449 3.20733 216.498 2.73208 216.403C2.25683 216.308 1.82026 216.075 1.47762 215.732C1.13498 215.39 0.901625 214.953 0.807091 214.478C0.712557 214.003 0.76106 213.51 0.946495 213.062C1.13193 212.615 1.446 212.232 1.8489 211.963C2.2518 211.694 2.72548 211.55 3.21004 211.55C3.53178 211.55 3.85036 211.613 4.14761 211.737C4.44485 211.86 4.7149 212.04 4.94241 212.268C5.16991 212.495 5.35041 212.765 5.47353 213.062C5.59666 213.36 5.66 213.678 5.66 214Z" fill="#04C8BD"/>
<path d="M5.65994 223C5.66192 223.485 5.51993 223.96 5.25192 224.364C4.98392 224.768 4.60201 225.084 4.15451 225.271C3.70701 225.458 3.21404 225.508 2.73813 225.414C2.26222 225.321 1.82475 225.088 1.48111 224.746C1.13747 224.404 0.903178 223.967 0.80783 223.492C0.712483 223.016 0.760389 222.523 0.945526 222.075C1.13066 221.627 1.44469 221.243 1.84781 220.974C2.25092 220.704 2.725 220.56 3.20999 220.56C3.53126 220.559 3.84957 220.621 4.14676 220.743C4.44395 220.865 4.71417 221.044 4.9418 221.271C5.16944 221.498 5.35005 221.767 5.4733 222.064C5.59654 222.361 5.65995 222.679 5.65994 223Z" fill="#04C8BD"/>
<path d="M5.66 231.93C5.66 232.415 5.5163 232.888 5.24709 233.291C4.97788 233.694 4.59528 234.008 4.14761 234.193C3.69993 234.379 3.20733 234.427 2.73208 234.333C2.25683 234.238 1.82026 234.005 1.47762 233.662C1.13498 233.32 0.901625 232.883 0.807091 232.408C0.712557 231.933 0.76106 231.44 0.946495 230.992C1.13193 230.545 1.446 230.162 1.8489 229.893C2.2518 229.624 2.72548 229.48 3.21004 229.48C3.53178 229.48 3.85036 229.543 4.14761 229.667C4.44485 229.79 4.7149 229.97 4.94241 230.198C5.16991 230.425 5.35041 230.695 5.47353 230.992C5.59666 231.29 5.66 231.608 5.66 231.93Z" fill="#04C8BD"/>
<path d="M5.65994 240.88C5.66192 241.365 5.51993 241.84 5.25192 242.244C4.98392 242.648 4.60201 242.964 4.15451 243.151C3.70701 243.338 3.21404 243.387 2.73813 243.294C2.26222 243.201 1.82475 242.968 1.48111 242.626C1.13747 242.284 0.903178 241.847 0.80783 241.372C0.712483 240.896 0.760389 240.403 0.945526 239.955C1.13066 239.506 1.44469 239.123 1.84781 238.854C2.25092 238.584 2.725 238.44 3.20999 238.44C3.53126 238.439 3.84957 238.501 4.14676 238.623C4.44395 238.745 4.71417 238.924 4.9418 239.151C5.16944 239.378 5.35005 239.647 5.4733 239.944C5.59654 240.241 5.65995 240.559 5.65994 240.88Z" fill="#04C8BD"/>
<path d="M289.5 106.06C289.5 106.545 289.356 107.019 289.086 107.422C288.817 107.825 288.433 108.139 287.985 108.324C287.537 108.509 287.044 108.557 286.568 108.462C286.093 108.367 285.656 108.132 285.314 107.789C284.972 107.445 284.739 107.008 284.646 106.532C284.552 106.056 284.602 105.563 284.789 105.115C284.976 104.668 285.292 104.286 285.696 104.018C286.1 103.75 286.575 103.608 287.06 103.61C287.708 103.613 288.329 103.872 288.786 104.331C289.243 104.79 289.5 105.412 289.5 106.06Z" fill="#A7C957"/>
<path d="M289.5 115C289.5 115.485 289.356 115.959 289.086 116.362C288.817 116.765 288.433 117.079 287.985 117.265C287.537 117.45 287.044 117.498 286.568 117.402C286.093 117.307 285.656 117.073 285.314 116.729C284.972 116.385 284.739 115.948 284.646 115.472C284.552 114.996 284.602 114.503 284.789 114.056C284.976 113.608 285.292 113.226 285.696 112.958C286.1 112.69 286.575 112.548 287.06 112.55C287.381 112.55 287.699 112.614 287.996 112.737C288.293 112.86 288.562 113.041 288.789 113.268C289.016 113.496 289.195 113.766 289.317 114.063C289.439 114.36 289.501 114.679 289.5 115Z" fill="#A7C957"/>
<path d="M289.5 124C289.5 124.485 289.356 124.959 289.086 125.362C288.817 125.765 288.433 126.079 287.985 126.265C287.537 126.45 287.044 126.498 286.568 126.402C286.093 126.307 285.656 126.073 285.314 125.729C284.972 125.385 284.739 124.948 284.646 124.472C284.552 123.996 284.602 123.503 284.789 123.056C284.976 122.608 285.292 122.226 285.696 121.958C286.1 121.69 286.575 121.548 287.06 121.55C287.708 121.553 288.329 121.812 288.786 122.271C289.243 122.73 289.5 123.352 289.5 124Z" fill="#A7C957"/>
<path d="M289.5 132.92C289.502 133.405 289.36 133.88 289.091 134.285C288.823 134.689 288.44 135.005 287.992 135.192C287.544 135.378 287.051 135.428 286.575 135.333C286.098 135.239 285.661 135.006 285.318 134.662C284.974 134.319 284.741 133.882 284.647 133.406C284.552 132.929 284.602 132.436 284.788 131.988C284.975 131.54 285.291 131.157 285.695 130.889C286.1 130.62 286.575 130.478 287.06 130.48C287.38 130.48 287.698 130.543 287.994 130.666C288.29 130.788 288.559 130.968 288.785 131.195C289.012 131.421 289.192 131.69 289.314 131.986C289.437 132.282 289.5 132.6 289.5 132.92Z" fill="#A7C957"/>
<path d="M289.5 141.88C289.5 142.365 289.356 142.839 289.086 143.242C288.817 143.645 288.433 143.959 287.985 144.144C287.537 144.33 287.044 144.377 286.568 144.282C286.093 144.187 285.656 143.952 285.314 143.609C284.972 143.265 284.739 142.828 284.646 142.352C284.552 141.876 284.602 141.383 284.789 140.935C284.976 140.488 285.292 140.106 285.696 139.838C286.1 139.57 286.575 139.428 287.06 139.43C287.708 139.433 288.329 139.692 288.786 140.151C289.243 140.61 289.5 141.232 289.5 141.88Z" fill="#A7C957"/>
<path d="M280.52 106.06C280.52 106.544 280.376 107.018 280.107 107.421C279.838 107.824 279.455 108.138 279.008 108.323C278.56 108.509 278.067 108.557 277.592 108.463C277.117 108.368 276.68 108.135 276.338 107.792C275.995 107.45 275.762 107.013 275.667 106.538C275.573 106.063 275.621 105.57 275.807 105.122C275.992 104.675 276.306 104.292 276.709 104.023C277.112 103.754 277.585 103.61 278.07 103.61C278.72 103.61 279.343 103.868 279.802 104.327C280.262 104.787 280.52 105.41 280.52 106.06Z" fill="#A7C957"/>
<path d="M280.52 115C280.52 115.485 280.376 115.958 280.107 116.361C279.838 116.764 279.455 117.078 279.008 117.264C278.56 117.449 278.067 117.498 277.592 117.403C277.117 117.308 276.68 117.075 276.338 116.732C275.995 116.39 275.762 115.953 275.667 115.478C275.573 115.003 275.621 114.51 275.807 114.062C275.992 113.615 276.306 113.232 276.709 112.963C277.112 112.694 277.585 112.55 278.07 112.55C278.72 112.55 279.343 112.808 279.802 113.268C280.262 113.727 280.52 114.35 280.52 115Z" fill="#A7C957"/>
<path d="M280.52 124C280.52 124.485 280.376 124.958 280.107 125.361C279.838 125.764 279.455 126.078 279.008 126.264C278.56 126.449 278.067 126.498 277.592 126.403C277.117 126.308 276.68 126.075 276.338 125.732C275.995 125.39 275.762 124.953 275.667 124.478C275.573 124.003 275.621 123.51 275.807 123.062C275.992 122.615 276.306 122.232 276.709 121.963C277.112 121.694 277.585 121.55 278.07 121.55C278.72 121.55 279.343 121.808 279.802 122.268C280.262 122.727 280.52 123.35 280.52 124Z" fill="#A7C957"/>
<path d="M280.52 132.92C280.522 133.405 280.38 133.88 280.112 134.284C279.844 134.688 279.462 135.004 279.015 135.191C278.567 135.378 278.074 135.428 277.598 135.334C277.122 135.241 276.685 135.008 276.341 134.666C275.998 134.324 275.763 133.887 275.668 133.412C275.573 132.936 275.62 132.443 275.806 131.995C275.991 131.546 276.305 131.163 276.708 130.894C277.111 130.624 277.585 130.48 278.07 130.48C278.718 130.48 279.34 130.737 279.799 131.194C280.258 131.651 280.517 132.272 280.52 132.92Z" fill="#A7C957"/>
<path d="M280.52 141.88C280.52 142.365 280.376 142.838 280.107 143.241C279.838 143.644 279.455 143.958 279.008 144.143C278.56 144.329 278.067 144.377 277.592 144.283C277.117 144.188 276.68 143.955 276.338 143.612C275.995 143.27 275.762 142.833 275.667 142.358C275.573 141.883 275.621 141.39 275.807 140.942C275.992 140.495 276.306 140.112 276.709 139.843C277.112 139.574 277.585 139.43 278.07 139.43C278.72 139.43 279.343 139.688 279.802 140.148C280.262 140.607 280.52 141.23 280.52 141.88Z" fill="#A7C957"/>
<path d="M271.54 106.06C271.54 106.544 271.396 107.018 271.127 107.421C270.858 107.824 270.475 108.138 270.028 108.323C269.58 108.509 269.087 108.557 268.612 108.463C268.137 108.368 267.7 108.135 267.358 107.792C267.015 107.45 266.782 107.013 266.687 106.538C266.593 106.063 266.641 105.57 266.826 105.122C267.012 104.675 267.326 104.292 267.729 104.023C268.132 103.754 268.605 103.61 269.09 103.61C269.74 103.61 270.363 103.868 270.822 104.327C271.282 104.787 271.54 105.41 271.54 106.06Z" fill="#A7C957"/>
<path d="M271.54 115C271.54 115.485 271.396 115.958 271.127 116.361C270.858 116.764 270.475 117.078 270.028 117.264C269.58 117.449 269.087 117.498 268.612 117.403C268.137 117.308 267.7 117.075 267.358 116.732C267.015 116.39 266.782 115.953 266.687 115.478C266.593 115.003 266.641 114.51 266.826 114.062C267.012 113.615 267.326 113.232 267.729 112.963C268.132 112.694 268.605 112.55 269.09 112.55C269.74 112.55 270.363 112.808 270.822 113.268C271.282 113.727 271.54 114.35 271.54 115Z" fill="#A7C957"/>
<path d="M271.54 124C271.54 124.485 271.396 124.958 271.127 125.361C270.858 125.764 270.475 126.078 270.028 126.264C269.58 126.449 269.087 126.498 268.612 126.403C268.137 126.308 267.7 126.075 267.358 125.732C267.015 125.39 266.782 124.953 266.687 124.478C266.593 124.003 266.641 123.51 266.826 123.062C267.012 122.615 267.326 122.232 267.729 121.963C268.132 121.694 268.605 121.55 269.09 121.55C269.74 121.55 270.363 121.808 270.822 122.268C271.282 122.727 271.54 123.35 271.54 124Z" fill="#A7C957"/>
<path d="M271.54 132.92C271.542 133.405 271.4 133.88 271.132 134.284C270.864 134.688 270.482 135.004 270.035 135.191C269.587 135.378 269.094 135.428 268.618 135.334C268.142 135.241 267.705 135.008 267.361 134.666C267.018 134.324 266.783 133.887 266.688 133.412C266.592 132.936 266.64 132.443 266.826 131.995C267.011 131.546 267.325 131.163 267.728 130.894C268.131 130.624 268.605 130.48 269.09 130.48C269.738 130.48 270.36 130.737 270.819 131.194C271.278 131.651 271.537 132.272 271.54 132.92Z" fill="#A7C957"/>
<path d="M271.54 141.88C271.54 142.365 271.396 142.838 271.127 143.241C270.858 143.644 270.475 143.958 270.028 144.143C269.58 144.329 269.087 144.377 268.612 144.283C268.137 144.188 267.7 143.955 267.358 143.612C267.015 143.27 266.782 142.833 266.687 142.358C266.593 141.883 266.641 141.39 266.826 140.942C267.012 140.495 267.326 140.112 267.729 139.843C268.132 139.574 268.605 139.43 269.09 139.43C269.74 139.43 270.363 139.688 270.822 140.148C271.282 140.607 271.54 141.23 271.54 141.88Z" fill="#A7C957"/>
<path d="M262.55 106.06C262.55 106.544 262.406 107.018 262.137 107.421C261.868 107.824 261.485 108.138 261.038 108.323C260.59 108.509 260.097 108.557 259.622 108.463C259.147 108.368 258.71 108.135 258.368 107.792C258.025 107.45 257.792 107.013 257.697 106.538C257.603 106.063 257.651 105.57 257.837 105.122C258.022 104.675 258.336 104.292 258.739 104.023C259.142 103.754 259.615 103.61 260.1 103.61C260.75 103.61 261.373 103.868 261.832 104.327C262.292 104.787 262.55 105.41 262.55 106.06Z" fill="#A7C957"/>
<path d="M262.55 115C262.55 115.485 262.406 115.958 262.137 116.361C261.868 116.764 261.485 117.078 261.038 117.264C260.59 117.449 260.097 117.498 259.622 117.403C259.147 117.308 258.71 117.075 258.368 116.732C258.025 116.39 257.792 115.953 257.697 115.478C257.603 115.003 257.651 114.51 257.837 114.062C258.022 113.615 258.336 113.232 258.739 112.963C259.142 112.694 259.615 112.55 260.1 112.55C260.75 112.55 261.373 112.808 261.832 113.268C262.292 113.727 262.55 114.35 262.55 115Z" fill="#A7C957"/>
<path d="M262.55 124C262.55 124.485 262.406 124.958 262.137 125.361C261.868 125.764 261.485 126.078 261.038 126.264C260.59 126.449 260.097 126.498 259.622 126.403C259.147 126.308 258.71 126.075 258.368 125.732C258.025 125.39 257.792 124.953 257.697 124.478C257.603 124.003 257.651 123.51 257.837 123.062C258.022 122.615 258.336 122.232 258.739 121.963C259.142 121.694 259.615 121.55 260.1 121.55C260.75 121.55 261.373 121.808 261.832 122.268C262.292 122.727 262.55 123.35 262.55 124Z" fill="#A7C957"/>
<path d="M262.55 132.92C262.552 133.405 262.41 133.88 262.142 134.284C261.874 134.688 261.492 135.004 261.045 135.191C260.597 135.378 260.104 135.428 259.628 135.334C259.152 135.241 258.715 135.008 258.371 134.666C258.028 134.324 257.793 133.887 257.698 133.412C257.602 132.936 257.65 132.443 257.836 131.995C258.021 131.546 258.335 131.163 258.738 130.894C259.141 130.624 259.615 130.48 260.1 130.48C260.748 130.48 261.37 130.737 261.829 131.194C262.288 131.651 262.547 132.272 262.55 132.92Z" fill="#A7C957"/>
<path d="M262.55 141.88C262.55 142.365 262.406 142.838 262.137 143.241C261.868 143.644 261.485 143.958 261.038 144.143C260.59 144.329 260.097 144.377 259.622 144.283C259.147 144.188 258.71 143.955 258.368 143.612C258.025 143.27 257.792 142.833 257.697 142.358C257.603 141.883 257.651 141.39 257.837 140.942C258.022 140.495 258.336 140.112 258.739 139.843C259.142 139.574 259.615 139.43 260.1 139.43C260.75 139.43 261.373 139.688 261.832 140.148C262.292 140.607 262.55 141.23 262.55 141.88Z" fill="#A7C957"/>
<path d="M253.57 106.06C253.57 106.544 253.426 107.018 253.157 107.421C252.888 107.824 252.505 108.138 252.058 108.323C251.61 108.509 251.117 108.557 250.642 108.463C250.167 108.368 249.73 108.135 249.388 107.792C249.045 107.45 248.812 107.013 248.717 106.538C248.623 106.063 248.671 105.57 248.857 105.122C249.042 104.675 249.356 104.292 249.759 104.023C250.162 103.754 250.635 103.61 251.12 103.61C251.442 103.61 251.76 103.673 252.058 103.796C252.355 103.92 252.625 104.1 252.852 104.327C253.08 104.555 253.26 104.825 253.384 105.122C253.507 105.42 253.57 105.738 253.57 106.06Z" fill="#A7C957"/>
<path d="M253.57 115C253.57 115.485 253.426 115.958 253.157 116.361C252.888 116.764 252.505 117.078 252.058 117.264C251.61 117.449 251.117 117.498 250.642 117.403C250.167 117.308 249.73 117.075 249.388 116.732C249.045 116.39 248.812 115.953 248.717 115.478C248.623 115.003 248.671 114.51 248.857 114.062C249.042 113.615 249.356 113.232 249.759 112.963C250.162 112.694 250.635 112.55 251.12 112.55C251.442 112.55 251.76 112.613 252.058 112.737C252.355 112.86 252.625 113.04 252.852 113.268C253.08 113.495 253.26 113.765 253.384 114.062C253.507 114.36 253.57 114.678 253.57 115Z" fill="#A7C957"/>
<path d="M253.57 124C253.57 124.485 253.426 124.958 253.157 125.361C252.888 125.764 252.505 126.078 252.058 126.264C251.61 126.449 251.117 126.498 250.642 126.403C250.167 126.308 249.73 126.075 249.388 125.732C249.045 125.39 248.812 124.953 248.717 124.478C248.623 124.003 248.671 123.51 248.857 123.062C249.042 122.615 249.356 122.232 249.759 121.963C250.162 121.694 250.635 121.55 251.12 121.55C251.442 121.55 251.76 121.613 252.058 121.737C252.355 121.86 252.625 122.04 252.852 122.268C253.08 122.495 253.26 122.765 253.384 123.062C253.507 123.36 253.57 123.678 253.57 124Z" fill="#A7C957"/>
<path d="M253.57 132.92C253.572 133.405 253.43 133.88 253.162 134.284C252.894 134.688 252.512 135.004 252.065 135.191C251.617 135.378 251.124 135.428 250.648 135.334C250.172 135.241 249.735 135.008 249.391 134.666C249.048 134.324 248.813 133.887 248.718 133.412C248.623 132.936 248.67 132.443 248.856 131.995C249.041 131.546 249.355 131.163 249.758 130.894C250.161 130.624 250.635 130.48 251.12 130.48C251.768 130.48 252.39 130.737 252.849 131.194C253.308 131.651 253.567 132.272 253.57 132.92Z" fill="#A7C957"/>
<path d="M253.57 141.88C253.57 142.365 253.426 142.838 253.157 143.241C252.888 143.644 252.505 143.958 252.058 144.143C251.61 144.329 251.117 144.377 250.642 144.283C250.167 144.188 249.73 143.955 249.388 143.612C249.045 143.27 248.812 142.833 248.717 142.358C248.623 141.883 248.671 141.39 248.857 140.942C249.042 140.495 249.356 140.112 249.759 139.843C250.162 139.574 250.635 139.43 251.12 139.43C251.442 139.43 251.76 139.493 252.058 139.616C252.355 139.74 252.625 139.92 252.852 140.148C253.08 140.375 253.26 140.645 253.384 140.942C253.507 141.24 253.57 141.558 253.57 141.88Z" fill="#A7C957"/>
<path d="M212.64 142.6L212.87 142.68C216.428 143.975 220.288 144.194 223.97 143.31C228.024 142.321 231.66 140.072 234.355 136.886C237.05 133.7 238.666 129.742 238.97 125.58C238.97 125.18 238.97 124.78 238.97 124.37V123.57C238.927 122.289 238.757 121.016 238.46 119.77C237.732 116.623 236.24 113.704 234.115 111.271C231.991 108.838 229.3 106.966 226.28 105.82H226.19L225.96 105.74C222.402 104.443 218.54 104.227 214.86 105.12C210.805 106.105 207.168 108.351 204.472 111.536C201.777 114.72 200.162 118.678 199.86 122.84C199.86 123.24 199.86 123.65 199.86 124.05V124.85C199.907 126.13 200.078 127.403 200.37 128.65C201.097 131.799 202.589 134.72 204.716 137.153C206.842 139.587 209.537 141.458 212.56 142.6H212.64ZM212.56 124C212.6 122.664 213.026 121.368 213.788 120.269C214.549 119.17 215.613 118.316 216.85 117.81C217.682 117.459 218.577 117.285 219.48 117.3C221.214 117.318 222.877 117.987 224.141 119.174C225.404 120.362 226.175 121.981 226.3 123.71C226.3 123.95 226.3 124.2 226.3 124.45C226.26 125.786 225.834 127.082 225.072 128.181C224.311 129.279 223.247 130.134 222.01 130.64C221.178 130.991 220.283 131.165 219.38 131.15C217.646 131.132 215.983 130.463 214.719 129.275C213.456 128.088 212.685 126.469 212.56 124.74C212.57 124.5 212.56 124.25 212.56 124Z" fill="white"/>
<path d="M219.47 248.28H194.66C194.66 235.124 199.885 222.507 209.187 213.204C218.488 203.901 231.104 198.673 244.26 198.67V223.54C241.006 223.531 237.782 224.164 234.774 225.403C231.765 226.643 229.031 228.464 226.728 230.763C224.425 233.061 222.598 235.792 221.353 238.798C220.107 241.804 219.467 245.026 219.47 248.28Z" fill="#04C8BD"/>
<path d="M70.66 198.67H95.46C95.4613 205.184 94.1794 211.635 91.6873 217.654C89.1953 223.673 85.542 229.142 80.936 233.749C76.3301 238.356 70.8618 242.01 64.8434 244.503C58.825 246.997 52.3744 248.28 45.86 248.28V223.41C49.1139 223.418 52.3375 222.784 55.346 221.544C58.3545 220.304 61.089 218.483 63.3926 216.185C65.6963 213.887 67.524 211.157 68.7711 208.151C70.0181 205.146 70.66 201.924 70.66 198.67Z" fill="#2A7EE2"/>
<path d="M194.62 173.87V149.06C207.777 149.06 220.396 154.287 229.7 163.59C239.003 172.894 244.23 185.513 244.23 198.67H219.36C219.369 195.416 218.736 192.192 217.497 189.182C216.257 186.173 214.436 183.438 212.138 181.135C209.84 178.831 207.109 177.003 204.103 175.756C201.097 174.51 197.874 173.869 194.62 173.87Z" fill="#FDB90C"/>
<path d="M293.89 173.86V198.67C280.733 198.67 268.114 193.443 258.81 184.14C249.507 174.836 244.28 162.217 244.28 149.06H269.15C269.142 152.314 269.776 155.538 271.016 158.546C272.256 161.555 274.077 164.289 276.375 166.593C278.673 168.896 281.403 170.724 284.409 171.971C287.414 173.218 290.636 173.86 293.89 173.86Z" fill="#325B90"/>
<path d="M293.89 74.6501V99.4601C280.733 99.4601 268.114 94.2333 258.81 84.9297C249.507 75.626 244.28 63.0075 244.28 49.8501H269.15C269.142 53.104 269.776 56.3276 271.016 59.3361C272.256 62.3446 274.077 65.079 276.375 67.3827C278.673 69.6864 281.403 71.5141 284.409 72.7611C287.414 74.0082 290.636 74.6501 293.89 74.6501Z" fill="#FDB90C"/>
<path d="M194.66 248.27C181.503 248.27 168.884 243.043 159.58 233.74C150.277 224.436 145.05 211.817 145.05 198.66H194.66V248.27Z" fill="#2A7EE2"/>
</svg>
