<svg width="298" height="276" viewBox="0 0 298 276" fill="none" xmlns="http://www.w3.org/2000/svg">
<path d="M99.21 275.21V250.41H0V275.21H99.21Z" fill="#A7C957"/>
<path d="M49.61 126.46H0V176.07H49.61V126.46Z" fill="#FDB90C"/>
<path d="M49.61 200.52C49.612 195.615 51.0681 190.822 53.7944 186.745C56.5207 182.668 60.3946 179.49 64.9264 177.615C69.4581 175.739 74.4443 175.25 79.2544 176.208C84.0644 177.166 88.4824 179.529 91.9498 182.997C95.4171 186.466 97.7781 190.885 98.7342 195.695C99.6903 200.506 99.1986 205.492 97.3212 210.023C95.4439 214.554 92.2652 218.427 88.1871 221.151C84.109 223.876 79.3145 225.33 74.41 225.33C71.1524 225.33 67.9267 224.688 64.9171 223.441C61.9076 222.194 59.1732 220.367 56.8702 218.063C54.5672 215.759 52.7406 213.024 51.4949 210.014C50.2492 207.004 49.6087 203.778 49.61 200.52Z" fill="#325B90"/>
<path d="M99.21 225.67C99.21 232.185 97.9267 238.636 95.4336 244.655C92.9405 250.674 89.2862 256.143 84.6795 260.749C80.0728 265.356 74.6038 269.01 68.5848 271.504C62.5659 273.997 56.1148 275.28 49.5999 275.28V225.67H99.21Z" fill="#2A7EE2"/>
<path d="M128.47 252.06C128.465 253.183 128.016 254.258 127.222 255.052C126.428 255.846 125.353 256.295 124.23 256.3C123.107 256.295 122.032 255.846 121.238 255.052C120.444 254.258 119.995 253.183 119.99 252.06C119.995 250.937 120.444 249.862 121.238 249.068C122.032 248.274 123.107 247.825 124.23 247.82C125.353 247.825 126.428 248.274 127.222 249.068C128.016 249.862 128.465 250.937 128.47 252.06Z" fill="#FDB90C"/>
<path d="M149 247.75C150.125 247.75 151.203 248.197 151.998 248.992C152.793 249.787 153.24 250.865 153.24 251.99C153.237 253.114 152.79 254.191 151.995 254.985C151.201 255.78 150.124 256.227 149 256.23C147.877 256.225 146.802 255.776 146.008 254.982C145.214 254.188 144.765 253.113 144.76 251.99C144.763 250.866 145.21 249.789 146.005 248.995C146.799 248.2 147.876 247.753 149 247.75Z" fill="#FDB90C"/>
<path d="M173.8 247.83C174.923 247.835 175.998 248.284 176.792 249.078C177.586 249.872 178.035 250.947 178.04 252.07C178.035 253.193 177.586 254.268 176.792 255.062C175.998 255.856 174.923 256.305 173.8 256.31C172.677 256.305 171.602 255.856 170.808 255.062C170.014 254.268 169.565 253.193 169.56 252.07C169.565 250.947 170.014 249.872 170.808 249.078C171.602 248.284 172.677 247.835 173.8 247.83Z" fill="#FDB90C"/>
<path d="M24.9 49.6001C26.0229 49.6054 27.0983 50.0538 27.8924 50.8478C28.6864 51.6418 29.1348 52.7172 29.14 53.8401C29.1348 54.963 28.6864 56.0384 27.8924 56.8324C27.0983 57.6264 26.0229 58.0748 24.9 58.0801C23.7771 58.0748 22.7017 57.6264 21.9077 56.8324C21.1137 56.0384 20.6653 54.963 20.66 53.8401C20.6653 52.7172 21.1137 51.6418 21.9077 50.8478C22.7017 50.0538 23.7771 49.6054 24.9 49.6001Z" fill="#2A7EE2"/>
<path d="M20.66 4.26001C20.66 3.13364 21.1061 2.05309 21.9007 1.25476C22.6953 0.456428 23.7737 0.0052881 24.9 0C26.0229 0.00525956 27.0983 0.453664 27.8924 1.24768C28.6864 2.0417 29.1348 3.11709 29.14 4.23999C29.1348 5.36289 28.6864 6.43831 27.8924 7.23233C27.0983 8.02635 26.0229 8.47475 24.9 8.48001C23.7806 8.4748 22.7082 8.02915 21.9147 7.23944C21.1212 6.44973 20.6705 5.37943 20.66 4.26001Z" fill="#2A7EE2"/>
<path d="M20.66 29.05C20.6627 27.9263 21.1102 26.8494 21.9048 26.0548C22.6994 25.2603 23.7763 24.8127 24.9 24.8101C26.0237 24.8127 27.1007 25.2603 27.8953 26.0548C28.6898 26.8494 29.1374 27.9263 29.14 29.05C29.1348 30.172 28.686 31.2464 27.8917 32.0388C27.0974 32.8312 26.022 33.2774 24.9 33.2801C23.7781 33.2774 22.7026 32.8312 21.9083 32.0388C21.114 31.2464 20.6653 30.172 20.66 29.05Z" fill="#2A7EE2"/>
<path d="M45.32 182.61C45.32 183.094 45.1764 183.568 44.9071 183.971C44.6379 184.374 44.2553 184.688 43.8076 184.873C43.3599 185.059 42.8673 185.107 42.3921 185.013C41.9168 184.918 41.4803 184.685 41.1376 184.342C40.795 184 40.5617 183.563 40.4671 183.088C40.3726 182.613 40.4211 182.12 40.6065 181.672C40.792 181.225 41.106 180.842 41.5089 180.573C41.9118 180.304 42.3855 180.16 42.87 180.16C43.5198 180.16 44.143 180.418 44.6025 180.878C45.0619 181.337 45.32 181.96 45.32 182.61Z" fill="#325B90"/>
<path d="M45.32 191.57C45.32 192.055 45.1764 192.528 44.9071 192.931C44.6379 193.334 44.2553 193.648 43.8076 193.834C43.3599 194.019 42.8673 194.068 42.3921 193.973C41.9168 193.878 41.4803 193.645 41.1376 193.303C40.795 192.96 40.5617 192.523 40.4671 192.048C40.3726 191.573 40.4211 191.08 40.6065 190.633C40.792 190.185 41.106 189.802 41.5089 189.533C41.9118 189.264 42.3855 189.12 42.87 189.12C43.5198 189.12 44.143 189.378 44.6025 189.838C45.0619 190.297 45.32 190.92 45.32 191.57Z" fill="#325B90"/>
<path d="M45.32 200.52C45.32 201.005 45.1764 201.478 44.9071 201.881C44.6379 202.284 44.2553 202.598 43.8076 202.784C43.3599 202.969 42.8673 203.018 42.3921 202.923C41.9168 202.828 41.4803 202.595 41.1376 202.253C40.795 201.91 40.5617 201.473 40.4671 200.998C40.3726 200.523 40.4211 200.03 40.6065 199.582C40.792 199.135 41.106 198.752 41.5089 198.483C41.9118 198.214 42.3855 198.07 42.87 198.07C43.1918 198.07 43.5104 198.133 43.8076 198.257C44.1049 198.38 44.375 198.56 44.6025 198.788C44.83 199.015 45.0104 199.285 45.1335 199.582C45.2567 199.88 45.32 200.198 45.32 200.52Z" fill="#325B90"/>
<path d="M45.32 209.48C45.3141 209.963 45.1654 210.434 44.8926 210.833C44.6198 211.232 44.2351 211.541 43.787 211.722C43.3388 211.903 42.8472 211.947 42.3739 211.849C41.9006 211.751 41.4669 211.516 41.1272 211.172C40.7876 210.828 40.5572 210.391 40.4651 209.917C40.373 209.443 40.4232 208.952 40.6095 208.506C40.7958 208.06 41.1098 207.679 41.512 207.411C41.9142 207.143 42.3867 207 42.87 207C43.1943 207 43.5153 207.064 43.8145 207.189C44.1138 207.314 44.3852 207.497 44.6131 207.728C44.841 207.959 45.0208 208.232 45.1422 208.533C45.2635 208.834 45.324 209.156 45.32 209.48Z" fill="#325B90"/>
<path d="M45.32 218.43C45.3239 218.915 45.1836 219.391 44.9168 219.797C44.65 220.202 44.2688 220.519 43.8215 220.708C43.3742 220.896 42.8809 220.948 42.4044 220.855C41.9278 220.763 41.4894 220.531 41.1447 220.19C40.8001 219.848 40.5648 219.411 40.4686 218.935C40.3724 218.46 40.4198 217.966 40.6046 217.517C40.7894 217.068 41.1034 216.684 41.5068 216.414C41.9101 216.144 42.3845 216 42.87 216C43.5163 216 44.1364 216.255 44.5953 216.711C45.0542 217.166 45.3147 217.784 45.32 218.43Z" fill="#325B90"/>
<path d="M36.3301 182.61C36.3301 183.095 36.1861 183.569 35.9165 183.972C35.6468 184.375 35.2636 184.689 34.8153 184.874C34.367 185.06 33.8739 185.107 33.3984 185.012C32.9229 184.917 32.4863 184.682 32.1441 184.339C31.8019 183.995 31.5693 183.558 31.4759 183.082C31.3825 182.606 31.4325 182.113 31.6194 181.665C31.8064 181.218 32.122 180.836 32.5262 180.568C32.9304 180.3 33.4051 180.158 33.8901 180.16C34.2113 180.16 34.5294 180.223 34.8261 180.347C35.1228 180.47 35.3922 180.65 35.6189 180.878C35.8456 181.106 36.0252 181.376 36.1472 181.673C36.2692 181.97 36.3314 182.289 36.3301 182.61Z" fill="#325B90"/>
<path d="M36.3301 191.57C36.3301 192.055 36.1861 192.529 35.9165 192.932C35.6468 193.335 35.2636 193.649 34.8153 193.834C34.367 194.02 33.8739 194.067 33.3984 193.972C32.9229 193.877 32.4863 193.642 32.1441 193.299C31.8019 192.955 31.5693 192.518 31.4759 192.042C31.3825 191.566 31.4325 191.073 31.6194 190.625C31.8064 190.178 32.122 189.796 32.5262 189.528C32.9304 189.26 33.4051 189.118 33.8901 189.12C34.5381 189.123 35.1587 189.382 35.616 189.841C36.0733 190.3 36.3301 190.922 36.3301 191.57Z" fill="#325B90"/>
<path d="M36.3301 200.52C36.3301 201.005 36.1861 201.479 35.9165 201.882C35.6468 202.285 35.2636 202.599 34.8153 202.785C34.367 202.97 33.8739 203.018 33.3984 202.922C32.9229 202.827 32.4863 202.593 32.1441 202.249C31.8019 201.905 31.5693 201.468 31.4759 200.992C31.3825 200.516 31.4325 200.023 31.6194 199.576C31.8064 199.128 32.122 198.746 32.5262 198.478C32.9304 198.21 33.4051 198.068 33.8901 198.07C34.2113 198.07 34.5294 198.134 34.8261 198.257C35.1228 198.38 35.3922 198.561 35.6189 198.788C35.8456 199.016 36.0252 199.286 36.1472 199.583C36.2692 199.88 36.3314 200.199 36.3301 200.52Z" fill="#325B90"/>
<path d="M36.33 209.48C36.3241 209.964 36.1751 210.435 35.9019 210.834C35.6286 211.233 35.2434 211.542 34.7946 211.723C34.3459 211.903 33.8537 211.947 33.3802 211.848C32.9067 211.75 32.473 211.513 32.1337 211.168C31.7945 210.823 31.5649 210.386 31.4739 209.911C31.3829 209.436 31.4346 208.944 31.6224 208.499C31.8102 208.053 32.1258 207.673 32.5293 207.406C32.9328 207.139 33.4063 206.998 33.89 207C34.2134 207.001 34.5334 207.067 34.8315 207.192C35.1295 207.318 35.3998 207.501 35.6266 207.732C35.8535 207.962 36.0324 208.235 36.1531 208.536C36.2738 208.836 36.334 209.157 36.33 209.48Z" fill="#325B90"/>
<path d="M36.33 218.43C36.3339 218.916 36.1934 219.392 35.9261 219.798C35.6589 220.203 35.2771 220.52 34.8292 220.709C34.3813 220.897 33.8875 220.948 33.4107 220.855C32.9338 220.762 32.4954 220.529 32.1512 220.186C31.807 219.843 31.5724 219.406 31.4774 218.929C31.3823 218.453 31.4311 217.959 31.6175 217.51C31.8039 217.061 32.1194 216.678 32.5241 216.409C32.9287 216.141 33.4041 215.998 33.89 216C34.5354 216 35.1545 216.256 35.6118 216.711C36.0691 217.167 36.3273 217.785 36.33 218.43Z" fill="#325B90"/>
<path d="M27.35 182.61C27.35 183.094 27.2063 183.568 26.9371 183.971C26.6678 184.374 26.2852 184.688 25.8375 184.873C25.3898 185.059 24.8972 185.107 24.422 185.013C23.9467 184.918 23.5102 184.685 23.1675 184.342C22.8249 184 22.5916 183.563 22.497 183.088C22.4025 182.613 22.451 182.12 22.6364 181.672C22.8219 181.225 23.1359 180.842 23.5388 180.573C23.9417 180.304 24.4154 180.16 24.9 180.16C25.5497 180.16 26.1729 180.418 26.6324 180.878C27.0918 181.337 27.35 181.96 27.35 182.61Z" fill="#325B90"/>
<path d="M27.35 191.57C27.35 192.055 27.2063 192.528 26.9371 192.931C26.6678 193.334 26.2852 193.648 25.8375 193.834C25.3898 194.019 24.8972 194.068 24.422 193.973C23.9467 193.878 23.5102 193.645 23.1675 193.303C22.8249 192.96 22.5916 192.523 22.497 192.048C22.4025 191.573 22.451 191.08 22.6364 190.633C22.8219 190.185 23.1359 189.802 23.5388 189.533C23.9417 189.264 24.4154 189.12 24.9 189.12C25.5497 189.12 26.1729 189.378 26.6324 189.838C27.0918 190.297 27.35 190.92 27.35 191.57Z" fill="#325B90"/>
<path d="M27.35 200.52C27.35 201.005 27.2063 201.478 26.9371 201.881C26.6678 202.284 26.2852 202.598 25.8375 202.784C25.3898 202.969 24.8972 203.018 24.422 202.923C23.9467 202.828 23.5102 202.595 23.1675 202.253C22.8249 201.91 22.5916 201.473 22.497 200.998C22.4025 200.523 22.451 200.03 22.6364 199.582C22.8219 199.135 23.1359 198.752 23.5388 198.483C23.9417 198.214 24.4154 198.07 24.9 198.07C25.2217 198.07 25.5403 198.133 25.8375 198.257C26.1348 198.38 26.4049 198.56 26.6324 198.788C26.8599 199.015 27.0403 199.285 27.1635 199.582C27.2866 199.88 27.35 200.198 27.35 200.52Z" fill="#325B90"/>
<path d="M27.35 209.48C27.3441 209.963 27.1954 210.434 26.9226 210.833C26.6498 211.232 26.2652 211.541 25.817 211.722C25.3688 211.903 24.8772 211.947 24.4039 211.849C23.9307 211.751 23.4969 211.516 23.1573 211.172C22.8176 210.828 22.5873 210.391 22.4951 209.917C22.403 209.443 22.4532 208.952 22.6395 208.506C22.8258 208.06 23.1398 207.679 23.542 207.411C23.9443 207.143 24.4167 207 24.9 207C25.2243 207 25.5453 207.064 25.8446 207.189C26.1438 207.314 26.4152 207.497 26.6431 207.728C26.871 207.959 27.0509 208.232 27.1722 208.533C27.2935 208.834 27.354 209.156 27.35 209.48Z" fill="#325B90"/>
<path d="M27.35 218.43C27.354 218.915 27.2136 219.391 26.9469 219.797C26.6801 220.202 26.2988 220.519 25.8515 220.708C25.4042 220.896 24.911 220.948 24.4344 220.855C23.9578 220.763 23.5194 220.531 23.1748 220.19C22.8301 219.848 22.5948 219.411 22.4986 218.935C22.4025 218.46 22.4498 217.966 22.6346 217.517C22.8195 217.068 23.1335 216.684 23.5368 216.414C23.9401 216.144 24.4146 216 24.9 216C25.5463 216 26.1665 216.255 26.6254 216.711C27.0843 217.166 27.3447 217.784 27.35 218.43Z" fill="#325B90"/>
<path d="M18.37 182.61C18.37 183.094 18.2263 183.568 17.9571 183.971C17.6879 184.374 17.3052 184.688 16.8575 184.873C16.4099 185.059 15.9173 185.107 15.442 185.013C14.9667 184.918 14.5302 184.685 14.1876 184.342C13.8449 184 13.6116 183.563 13.517 183.088C13.4225 182.613 13.471 182.12 13.6565 181.672C13.8419 181.225 14.1559 180.842 14.5588 180.573C14.9617 180.304 15.4354 180.16 15.92 180.16C16.5698 180.16 17.1929 180.418 17.6524 180.878C18.1118 181.337 18.37 181.96 18.37 182.61Z" fill="#325B90"/>
<path d="M18.37 191.57C18.37 192.055 18.2263 192.528 17.9571 192.931C17.6879 193.334 17.3052 193.648 16.8575 193.834C16.4099 194.019 15.9173 194.068 15.442 193.973C14.9667 193.878 14.5302 193.645 14.1876 193.303C13.8449 192.96 13.6116 192.523 13.517 192.048C13.4225 191.573 13.471 191.08 13.6565 190.633C13.8419 190.185 14.1559 189.802 14.5588 189.533C14.9617 189.264 15.4354 189.12 15.92 189.12C16.5698 189.12 17.1929 189.378 17.6524 189.838C18.1118 190.297 18.37 190.92 18.37 191.57Z" fill="#325B90"/>
<path d="M18.37 200.52C18.37 201.005 18.2263 201.478 17.9571 201.881C17.6879 202.284 17.3052 202.598 16.8575 202.784C16.4099 202.969 15.9173 203.018 15.442 202.923C14.9667 202.828 14.5302 202.595 14.1876 202.253C13.8449 201.91 13.6116 201.473 13.517 200.998C13.4225 200.523 13.471 200.03 13.6565 199.582C13.8419 199.135 14.1559 198.752 14.5588 198.483C14.9617 198.214 15.4354 198.07 15.92 198.07C16.2417 198.07 16.5603 198.133 16.8575 198.257C17.1548 198.38 17.4249 198.56 17.6524 198.788C17.8799 199.015 18.0604 199.285 18.1835 199.582C18.3066 199.88 18.37 200.198 18.37 200.52Z" fill="#325B90"/>
<path d="M18.37 209.48C18.3641 209.963 18.2154 210.434 17.9426 210.833C17.6698 211.232 17.2852 211.541 16.837 211.722C16.3888 211.903 15.8972 211.947 15.4239 211.849C14.9507 211.751 14.5169 211.516 14.1773 211.172C13.8377 210.828 13.6073 210.391 13.5151 209.917C13.423 209.443 13.4733 208.952 13.6595 208.506C13.8458 208.06 14.1598 207.679 14.5621 207.411C14.9643 207.143 15.4368 207 15.92 207C16.2443 207 16.5654 207.064 16.8646 207.189C17.1638 207.314 17.4352 207.497 17.6631 207.728C17.891 207.959 18.0709 208.232 18.1922 208.533C18.3136 208.834 18.374 209.156 18.37 209.48Z" fill="#325B90"/>
<path d="M18.37 218.43C18.374 218.915 18.2337 219.391 17.9669 219.797C17.7001 220.202 17.3188 220.519 16.8715 220.708C16.4242 220.896 15.931 220.948 15.4544 220.855C14.9779 220.763 14.5394 220.531 14.1948 220.19C13.8502 219.848 13.6148 219.411 13.5187 218.935C13.4225 218.46 13.4698 217.966 13.6547 217.517C13.8395 217.068 14.1535 216.684 14.5568 216.414C14.9601 216.144 15.4346 216 15.92 216C16.5663 216 17.1865 216.255 17.6454 216.711C18.1043 217.166 18.3647 217.784 18.37 218.43Z" fill="#325B90"/>
<path d="M9.37998 182.61C9.37998 183.094 9.23629 183.568 8.96708 183.971C8.69787 184.374 8.31523 184.688 7.86756 184.873C7.41988 185.059 6.92726 185.107 6.45201 185.013C5.97676 184.918 5.54021 184.685 5.19757 184.342C4.85493 184 4.62159 183.563 4.52706 183.088C4.43252 182.613 4.48104 182.12 4.66648 181.672C4.85191 181.225 5.16593 180.842 5.56883 180.573C5.97173 180.304 6.44542 180.16 6.92998 180.16C7.57976 180.16 8.20293 180.418 8.66239 180.878C9.12186 181.337 9.37998 181.96 9.37998 182.61Z" fill="#325B90"/>
<path d="M9.37998 191.57C9.37998 192.055 9.23629 192.528 8.96708 192.931C8.69787 193.334 8.31523 193.648 7.86756 193.834C7.41988 194.019 6.92726 194.068 6.45201 193.973C5.97676 193.878 5.54021 193.645 5.19757 193.303C4.85493 192.96 4.62159 192.523 4.52706 192.048C4.43252 191.573 4.48104 191.08 4.66648 190.633C4.85191 190.185 5.16593 189.802 5.56883 189.533C5.97173 189.264 6.44542 189.12 6.92998 189.12C7.57976 189.12 8.20293 189.378 8.66239 189.838C9.12186 190.297 9.37998 190.92 9.37998 191.57Z" fill="#325B90"/>
<path d="M9.37998 200.52C9.37998 201.005 9.23629 201.478 8.96708 201.881C8.69787 202.284 8.31523 202.598 7.86756 202.784C7.41988 202.969 6.92726 203.018 6.45201 202.923C5.97676 202.828 5.54021 202.595 5.19757 202.253C4.85493 201.91 4.62159 201.473 4.52706 200.998C4.43252 200.523 4.48104 200.03 4.66648 199.582C4.85191 199.135 5.16593 198.752 5.56883 198.483C5.97173 198.214 6.44542 198.07 6.92998 198.07C7.25172 198.07 7.57031 198.133 7.86756 198.257C8.1648 198.38 8.43489 198.56 8.66239 198.788C8.8899 199.015 9.07036 199.285 9.19349 199.582C9.31661 199.88 9.37998 200.198 9.37998 200.52Z" fill="#325B90"/>
<path d="M9.38004 209.48C9.37412 209.963 9.22542 210.434 8.95264 210.833C8.67986 211.232 8.29518 211.541 7.84702 211.722C7.39885 211.903 6.90721 211.947 6.43395 211.849C5.96069 211.751 5.52695 211.516 5.1873 211.172C4.84766 210.828 4.61728 210.391 4.52515 209.917C4.43303 209.443 4.48326 208.952 4.66955 208.506C4.85583 208.06 5.16984 207.679 5.57206 207.411C5.97429 207.143 6.44676 207 6.93004 207C7.25432 207 7.57538 207.064 7.8746 207.189C8.17382 207.314 8.44525 207.497 8.67315 207.728C8.90105 207.959 9.08088 208.232 9.20223 208.533C9.32357 208.834 9.38401 209.156 9.38004 209.48Z" fill="#325B90"/>
<path d="M9.38002 218.43C9.38398 218.915 9.24367 219.391 8.97688 219.797C8.71009 220.202 8.32885 220.519 7.88154 220.708C7.43422 220.896 6.94099 220.948 6.46443 220.855C5.98786 220.763 5.54945 220.531 5.20481 220.19C4.86016 219.848 4.62483 219.411 4.52866 218.935C4.4325 218.46 4.47983 217.966 4.66467 217.517C4.8495 217.068 5.1635 216.684 5.56682 216.414C5.97014 216.144 6.44461 216 6.93002 216C7.57635 216 8.19651 216.255 8.6554 216.711C9.11429 217.166 9.37475 217.784 9.38002 218.43Z" fill="#325B90"/>
<path d="M0 250.48V225.67C6.51488 225.67 12.966 226.953 18.9849 229.446C25.0039 231.939 30.4729 235.594 35.0796 240.2C39.6863 244.807 43.3405 250.276 45.8337 256.295C48.3268 262.314 49.61 268.765 49.61 275.28H24.74C24.7492 272.026 24.116 268.801 22.8767 265.792C21.6374 262.783 19.8164 260.048 17.518 257.744C15.2196 255.44 12.4891 253.613 9.48303 252.366C6.47692 251.12 3.25433 250.479 0 250.48H0Z" fill="#04C8BD"/>
<path d="M0 101.66V76.8501C13.1574 76.8501 25.7759 82.0768 35.0796 91.3805C44.3832 100.684 49.61 113.303 49.61 126.46H24.74C24.7479 123.206 24.1138 119.983 22.874 116.974C21.6343 113.966 19.8132 111.231 17.5151 108.927C15.217 106.624 12.487 104.796 9.48147 103.549C6.47596 102.302 3.25396 101.66 0 101.66H0Z" fill="#FDB90C"/>
<path d="M248 250.48V225.67C261.157 225.67 273.776 230.897 283.08 240.2C292.383 249.504 297.61 262.123 297.61 275.28H272.77C272.779 272.023 272.145 268.796 270.904 265.785C269.663 262.774 267.839 260.038 265.537 257.734C263.236 255.429 260.502 253.602 257.492 252.358C254.483 251.113 251.257 250.475 248 250.48Z" fill="#325B90"/>
<path d="M223.23 275.28H198.43C198.427 262.129 203.648 249.515 212.943 240.212C222.239 230.909 234.849 225.678 248 225.67V250.54C244.748 250.535 241.527 251.171 238.522 252.412C235.516 253.653 232.785 255.475 230.484 257.773C228.183 260.071 226.358 262.8 225.113 265.804C223.869 268.808 223.229 272.028 223.23 275.28Z" fill="#2A7EE2"/>
</svg>
