<svg width="298" height="153" viewBox="0 0 298 153" fill="none" xmlns="http://www.w3.org/2000/svg">
<path d="M74.41 0H49.5699V49.68H74.41V0Z" fill="#04C8BD"/>
<path d="M49.68 0H0V49.68H49.68V0Z" fill="#325B90"/>
<path d="M247.88 24.84L247.94 49.68C261.072 49.6773 273.665 44.4589 282.949 35.1724C292.234 25.8859 297.45 13.2918 297.45 0.16V0.05L272.66 0C272.661 3.255 272.021 6.47836 270.777 9.48597C269.532 12.4936 267.707 15.2265 265.406 17.5286C263.104 19.8307 260.372 21.6568 257.365 22.9028C254.358 24.1487 251.135 24.79 247.88 24.79V24.84Z" fill="#04C8BD"/>
<path d="M74.41 49.55L49.5699 49.6101C49.5699 62.7409 54.7862 75.334 64.0711 84.6189C73.356 93.9038 85.9491 99.1201 99.0799 99.1201H99.1999V74.3301C95.9449 74.3314 92.7216 73.6914 89.714 72.4467C86.7064 71.2019 83.9735 69.3769 81.6714 67.0757C79.3693 64.7745 77.5431 62.0424 76.2972 59.0353C75.0512 56.0282 74.41 52.805 74.41 49.55Z" fill="#04C8BD"/>
<path d="M24.89 99.1201L49.72 99.06C49.72 85.9292 44.5038 73.3361 35.2188 64.0512C25.9339 54.7663 13.3408 49.55 0.209976 49.55H0.0999756V74.3301C3.35544 74.3301 6.57904 74.9713 9.5867 76.2171C12.5944 77.4629 15.3272 79.2889 17.6292 81.5909C19.9311 83.8928 21.7571 86.6257 23.0029 89.6333C24.2488 92.641 24.89 95.8646 24.89 99.1201Z" fill="#A7C957"/>
<path d="M247.88 24.85V0.0100098C234.749 0.0100098 222.156 5.22623 212.871 14.5112C203.586 23.7961 198.37 36.3891 198.37 49.52V49.64H223.15C223.15 43.0679 225.761 36.7651 230.408 32.1179C235.055 27.4708 241.358 24.86 247.93 24.86L247.88 24.85Z" fill="#325B90"/>
<path d="M99.1899 49.6699H148.75V49.5099C148.743 43.0133 147.456 36.5819 144.96 30.5837C142.464 24.5855 138.81 19.1385 134.207 14.5545C129.603 9.9705 124.141 6.33953 118.132 3.8695C112.123 1.39946 105.686 0.138882 99.1899 0.159927V49.6699Z" fill="#325B90"/>
<path d="M198.37 0H148.7V49.67H198.37V0Z" fill="#FDB90C"/>
<path d="M49.61 98.6299C49.61 101.884 48.969 105.106 47.7237 108.113C46.4784 111.119 44.6531 113.851 42.3521 116.152C40.051 118.453 37.3193 120.278 34.3129 121.524C31.3064 122.769 28.0841 123.41 24.83 123.41C24.83 116.838 27.4407 110.535 32.0879 105.888C36.735 101.241 43.0379 98.6299 49.61 98.6299Z" fill="#04C8BD"/>
<path d="M24.8401 123.41C24.8374 129.98 22.2255 136.281 17.5786 140.926C12.9318 145.571 6.63039 148.18 0.0600586 148.18C0.0600586 141.608 2.6708 135.305 7.31795 130.658C11.9651 126.011 18.268 123.4 24.8401 123.4V123.41Z" fill="#FDB90C"/>
<path d="M49.61 148.18C43.0379 148.18 36.735 145.569 32.0879 140.922C27.4407 136.275 24.83 129.972 24.83 123.4C31.4021 123.4 37.7049 126.011 42.3521 130.658C46.9992 135.305 49.61 141.608 49.61 148.18Z" fill="#FDB90C"/>
<path d="M24.84 123.41C21.5858 123.41 18.3635 122.769 15.3571 121.524C12.3506 120.278 9.61889 118.453 7.31786 116.152C5.01682 113.851 3.19154 111.119 1.94623 108.113C0.700916 105.106 0.0599594 101.884 0.0599594 98.6299C6.63202 98.6299 12.9349 101.241 17.5821 105.888C22.2292 110.535 24.84 116.838 24.84 123.41Z" fill="#FDB90C"/>
<path d="M103.54 92.8001C103.54 92.3159 103.684 91.8427 103.952 91.44C104.221 91.0373 104.603 90.7233 105.05 90.5375C105.497 90.3518 105.989 90.3027 106.464 90.3964C106.939 90.4902 107.376 90.7225 107.719 91.0642C108.062 91.4058 108.296 91.8414 108.392 92.316C108.487 92.7906 108.44 93.2829 108.256 93.7307C108.073 94.1786 107.76 94.5619 107.358 94.8323C106.957 95.1027 106.484 95.2481 106 95.2501C105.677 95.2527 105.357 95.1912 105.058 95.0692C104.759 94.9471 104.487 94.7669 104.258 94.539C104.029 94.3111 103.848 94.0401 103.725 93.7415C103.602 93.443 103.539 93.123 103.54 92.8001Z" fill="#A7C957"/>
<path d="M103.54 83.8401C103.54 83.356 103.683 82.8827 103.952 82.48C104.221 82.0773 104.603 81.7633 105.05 81.5776C105.497 81.3919 105.989 81.3428 106.464 81.4365C106.939 81.5302 107.376 81.7626 107.719 82.1042C108.062 82.4458 108.296 82.8815 108.392 83.356C108.487 83.8306 108.44 84.3229 108.256 84.7708C108.072 85.2186 107.76 85.602 107.358 85.8724C106.957 86.1428 106.484 86.2881 106 86.2901C105.677 86.2914 105.358 86.229 105.059 86.1065C104.761 85.984 104.49 85.8037 104.261 85.5761C104.033 85.3484 103.851 85.0779 103.727 84.78C103.604 84.4821 103.54 84.1627 103.54 83.8401Z" fill="#A7C957"/>
<path d="M103.54 74.8899C103.538 74.4054 103.68 73.9311 103.947 73.5271C104.215 73.1231 104.596 72.8075 105.043 72.6203C105.49 72.433 105.983 72.3825 106.458 72.4751C106.934 72.5677 107.371 72.7992 107.715 73.1405C108.059 73.4817 108.295 73.9173 108.391 74.3922C108.487 74.867 108.441 75.3598 108.257 75.8083C108.074 76.2567 107.761 76.6406 107.36 76.9115C106.958 77.1823 106.485 77.3279 106 77.3299C105.678 77.3326 105.359 77.2714 105.06 77.15C104.762 77.0285 104.49 76.8492 104.262 76.6224C104.033 76.3955 103.852 76.1257 103.728 75.8283C103.604 75.531 103.54 75.212 103.54 74.8899Z" fill="#A7C957"/>
<path d="M103.54 65.93C103.54 65.4458 103.683 64.9725 103.952 64.5699C104.221 64.1672 104.603 63.8532 105.05 63.6674C105.497 63.4817 105.989 63.4326 106.464 63.5263C106.939 63.6201 107.376 63.8524 107.719 64.194C108.062 64.5357 108.296 64.9713 108.392 65.4459C108.487 65.9205 108.44 66.4128 108.256 66.8606C108.072 67.3085 107.76 67.6918 107.358 67.9622C106.957 68.2326 106.484 68.378 106 68.38C105.677 68.3813 105.358 68.3189 105.059 68.1963C104.761 68.0738 104.49 67.8935 104.261 67.6659C104.033 67.4383 103.851 67.1677 103.727 66.8698C103.604 66.5719 103.54 66.2525 103.54 65.93Z" fill="#A7C957"/>
<path d="M103.54 57C103.534 56.5146 103.672 56.0384 103.938 55.6318C104.203 55.2252 104.583 54.9065 105.029 54.7162C105.476 54.5259 105.969 54.4725 106.446 54.5628C106.923 54.6531 107.362 54.8831 107.708 55.2235C108.054 55.5639 108.291 55.9994 108.389 56.4748C108.487 56.9502 108.442 57.444 108.259 57.8936C108.076 58.3432 107.764 58.7283 107.361 59.0001C106.959 59.2718 106.485 59.418 106 59.42C105.68 59.4226 105.362 59.3621 105.065 59.2419C104.768 59.1218 104.497 58.9442 104.269 58.7195C104.04 58.4948 103.858 58.2273 103.733 57.9322C103.608 57.6372 103.543 57.3204 103.54 57Z" fill="#A7C957"/>
<path d="M112.52 92.7999C112.52 92.3166 112.663 91.8442 112.931 91.4419C113.199 91.0397 113.58 90.7257 114.026 90.5394C114.472 90.3531 114.963 90.3029 115.437 90.395C115.911 90.4872 116.348 90.7175 116.692 91.0572C117.036 91.3968 117.271 91.8306 117.369 92.3038C117.467 92.7771 117.423 93.2687 117.242 93.7169C117.061 94.1651 116.752 94.5497 116.353 94.8225C115.954 95.0953 115.483 95.244 115 95.2499C114.676 95.2539 114.354 95.1935 114.053 95.0721C113.753 94.9508 113.479 94.7709 113.248 94.543C113.017 94.3151 112.834 94.0437 112.709 93.7445C112.584 93.4452 112.52 93.1242 112.52 92.7999Z" fill="#A7C957"/>
<path d="M112.52 83.84C112.52 83.3567 112.663 82.8842 112.931 82.482C113.199 82.0798 113.58 81.7657 114.026 81.5795C114.472 81.3932 114.963 81.3429 115.437 81.4351C115.911 81.5272 116.348 81.7576 116.692 82.0972C117.036 82.4369 117.271 82.8706 117.369 83.3439C117.467 83.8171 117.423 84.3088 117.242 84.7569C117.061 85.2051 116.752 85.5898 116.353 85.8625C115.954 86.1353 115.483 86.284 115 86.29C114.676 86.2939 114.354 86.2335 114.053 86.1121C113.753 85.9908 113.479 85.811 113.248 85.5831C113.017 85.3552 112.834 85.0837 112.709 84.7845C112.584 84.4853 112.52 84.1642 112.52 83.84Z" fill="#A7C957"/>
<path d="M112.52 74.89C112.518 74.4063 112.659 73.9328 112.926 73.5293C113.193 73.1258 113.573 72.8102 114.019 72.6224C114.464 72.4346 114.956 72.3829 115.431 72.4739C115.906 72.5649 116.343 72.7945 116.688 73.1337C117.033 73.473 117.27 73.9067 117.368 74.3802C117.467 74.8537 117.424 75.3459 117.243 75.7946C117.062 76.2434 116.753 76.6286 116.354 76.9019C115.955 77.1751 115.484 77.3241 115 77.33C114.677 77.334 114.356 77.2738 114.056 77.1531C113.755 77.0324 113.482 76.8535 113.252 76.6266C113.021 76.3998 112.838 76.1295 112.712 75.8315C112.587 75.5334 112.521 75.2134 112.52 74.89Z" fill="#A7C957"/>
<path d="M112.52 65.93C112.52 65.4468 112.663 64.9743 112.931 64.5721C113.199 64.1698 113.58 63.8558 114.026 63.6695C114.472 63.4833 114.963 63.433 115.437 63.5252C115.911 63.6173 116.348 63.8477 116.692 64.1873C117.036 64.5269 117.271 64.9607 117.369 65.4339C117.467 65.9072 117.423 66.3989 117.242 66.847C117.061 67.2952 116.752 67.6799 116.353 67.9526C115.954 68.2254 115.483 68.3741 115 68.38C114.676 68.384 114.354 68.3236 114.053 68.2022C113.753 68.0809 113.479 67.901 113.248 67.6731C113.017 67.4452 112.834 67.1738 112.709 66.8746C112.584 66.5754 112.52 66.2543 112.52 65.93Z" fill="#A7C957"/>
<path d="M112.52 57.0001C112.514 56.5156 112.652 56.0402 112.916 55.634C113.181 55.2279 113.559 54.9093 114.005 54.7184C114.45 54.5275 114.942 54.473 115.418 54.5617C115.895 54.6504 116.334 54.8784 116.681 55.2168C117.028 55.5552 117.266 55.9888 117.367 56.4629C117.467 56.9369 117.425 57.4301 117.245 57.88C117.065 58.3299 116.755 58.7163 116.356 58.9905C115.956 59.2646 115.484 59.4141 115 59.4201C114.678 59.424 114.359 59.3646 114.06 59.2451C113.761 59.1256 113.489 58.9485 113.259 58.7238C113.028 58.499 112.845 58.2312 112.718 57.9354C112.591 57.6396 112.524 57.3218 112.52 57.0001Z" fill="#A7C957"/>
<path d="M121.51 92.8C121.51 92.3172 121.653 91.8451 121.92 91.4431C122.188 91.0411 122.568 90.7271 123.013 90.5406C123.459 90.354 123.949 90.3032 124.423 90.3946C124.898 90.4859 125.334 90.7153 125.678 91.054C126.023 91.3926 126.259 91.8254 126.358 92.298C126.457 92.7706 126.414 93.2619 126.235 93.7102C126.056 94.1585 125.748 94.5439 125.35 94.8178C124.953 95.0918 124.483 95.2421 124 95.25C123.675 95.2567 123.351 95.1982 123.049 95.0779C122.746 94.9577 122.471 94.7781 122.239 94.5498C122.007 94.3215 121.823 94.049 121.698 93.7485C121.572 93.448 121.509 93.1255 121.51 92.8Z" fill="#A7C957"/>
<path d="M121.51 83.84C121.51 83.3572 121.653 82.8851 121.92 82.4832C122.188 82.0812 122.568 81.7672 123.013 81.5806C123.459 81.3941 123.949 81.3433 124.423 81.4346C124.898 81.526 125.334 81.7554 125.678 82.094C126.023 82.4327 126.259 82.8654 126.358 83.338C126.457 83.8106 126.414 84.3019 126.235 84.7502C126.055 85.1986 125.748 85.5839 125.35 85.8578C124.952 86.1318 124.483 86.2822 124 86.2901C123.675 86.2954 123.352 86.2359 123.05 86.1152C122.748 85.9944 122.473 85.8148 122.242 85.5868C122.01 85.3587 121.826 85.0868 121.7 84.787C121.575 84.4871 121.51 84.1652 121.51 83.84Z" fill="#A7C957"/>
<path d="M121.51 74.8901C121.508 74.4068 121.649 73.9338 121.915 73.5305C122.182 73.1272 122.561 72.8117 123.007 72.6236C123.452 72.4355 123.943 72.3833 124.417 72.4735C124.892 72.5637 125.33 72.7923 125.675 73.1305C126.02 73.4688 126.257 73.9015 126.357 74.3744C126.457 74.8472 126.415 75.3391 126.236 75.788C126.057 76.2368 125.749 76.6228 125.351 76.8972C124.953 77.1716 124.483 77.3222 124 77.3301C123.675 77.3368 123.353 77.2786 123.051 77.1589C122.749 77.0393 122.474 76.8606 122.242 76.6334C122.01 76.4061 121.826 76.1349 121.7 75.8355C121.575 75.5362 121.51 75.2148 121.51 74.8901Z" fill="#A7C957"/>
<path d="M121.51 65.9299C121.51 65.4471 121.653 64.975 121.92 64.573C122.188 64.171 122.568 63.857 123.013 63.6705C123.459 63.4839 123.949 63.4331 124.423 63.5245C124.898 63.6158 125.334 63.8452 125.678 64.1838C126.023 64.5225 126.259 64.9553 126.358 65.4279C126.457 65.9005 126.414 66.3918 126.235 66.8401C126.055 67.2884 125.748 67.6737 125.35 67.9477C124.952 68.2217 124.483 68.372 124 68.3799C123.675 68.3852 123.352 68.3258 123.05 68.205C122.748 68.0843 122.473 67.9046 122.242 67.6766C122.01 67.4486 121.826 67.1767 121.7 66.8768C121.575 66.5769 121.51 66.255 121.51 65.9299Z" fill="#A7C957"/>
<path d="M121.51 56.9999C121.504 56.5159 121.642 56.0409 121.906 55.635C122.169 55.2291 122.548 54.9105 122.992 54.7193C123.437 54.5282 123.929 54.4731 124.405 54.561C124.881 54.6489 125.32 54.8759 125.667 55.2133C126.014 55.5507 126.254 55.9834 126.355 56.4568C126.457 56.9302 126.416 57.423 126.237 57.873C126.059 58.3231 125.751 58.7102 125.353 58.9855C124.955 59.2608 124.484 59.412 124 59.4199C123.677 59.4266 123.356 59.369 123.055 59.2506C122.755 59.1322 122.481 58.9553 122.249 58.7302C122.018 58.5051 121.833 58.2362 121.706 57.9392C121.579 57.6422 121.513 57.3229 121.51 56.9999Z" fill="#A7C957"/>
<path d="M130.49 92.8001C130.49 92.3155 130.634 91.8418 130.903 91.4389C131.172 91.036 131.555 90.722 132.002 90.5366C132.45 90.3512 132.943 90.3026 133.418 90.3972C133.893 90.4917 134.33 90.725 134.672 91.0677C135.015 91.4103 135.248 91.8469 135.343 92.3221C135.437 92.7974 135.389 93.29 135.203 93.7377C135.018 94.1853 134.704 94.568 134.301 94.8372C133.898 95.1064 133.425 95.2501 132.94 95.2501C132.29 95.2501 131.667 94.992 131.208 94.5325C130.748 94.073 130.49 93.4499 130.49 92.8001Z" fill="#A7C957"/>
<path d="M130.49 83.8399C130.49 83.3553 130.634 82.8816 130.903 82.4787C131.172 82.0758 131.555 81.7618 132.002 81.5764C132.45 81.391 132.943 81.3424 133.418 81.437C133.893 81.5315 134.33 81.7648 134.672 82.1075C135.015 82.4501 135.248 82.8867 135.343 83.3619C135.437 83.8372 135.389 84.3298 135.203 84.7775C135.018 85.2251 134.704 85.6078 134.301 85.877C133.898 86.1462 133.425 86.2899 132.94 86.2899C132.29 86.2899 131.667 86.0318 131.208 85.5723C130.748 85.1128 130.49 84.4897 130.49 83.8399Z" fill="#A7C957"/>
<path d="M130.49 74.8899C130.488 74.4049 130.63 73.9303 130.898 73.5261C131.166 73.1219 131.548 72.8063 131.995 72.6193C132.443 72.4323 132.936 72.3824 133.412 72.4758C133.888 72.5692 134.325 72.8017 134.669 73.144C135.012 73.4862 135.247 73.9227 135.342 74.3983C135.438 74.8738 135.39 75.3669 135.204 75.8152C135.019 76.2634 134.705 76.6467 134.302 76.9163C133.899 77.186 133.425 77.3299 132.94 77.3299C132.292 77.3299 131.67 77.0732 131.211 76.6159C130.752 76.1586 130.493 75.538 130.49 74.8899Z" fill="#A7C957"/>
<path d="M130.49 65.93C130.49 65.4454 130.634 64.9717 130.903 64.5688C131.172 64.1659 131.555 63.8519 132.002 63.6665C132.45 63.481 132.943 63.4325 133.418 63.5271C133.893 63.6216 134.33 63.8549 134.672 64.1976C135.015 64.5402 135.248 64.9768 135.343 65.452C135.437 65.9273 135.389 66.4199 135.203 66.8676C135.018 67.3152 134.704 67.6979 134.301 67.9671C133.898 68.2363 133.425 68.38 132.94 68.38C132.29 68.38 131.667 68.1219 131.208 67.6624C130.748 67.2029 130.49 66.5798 130.49 65.93Z" fill="#A7C957"/>
<path d="M130.49 57C130.49 56.5155 130.634 56.0418 130.903 55.6389C131.172 55.236 131.555 54.922 132.002 54.7365C132.45 54.5511 132.943 54.5026 133.418 54.5971C133.893 54.6917 134.33 54.925 134.672 55.2676C135.015 55.6103 135.248 56.0468 135.343 56.5221C135.437 56.9973 135.389 57.4899 135.203 57.9376C135.018 58.3853 134.704 58.7679 134.301 59.0372C133.898 59.3064 133.425 59.4501 132.94 59.4501C132.29 59.4501 131.667 59.1919 131.208 58.7325C130.748 58.273 130.49 57.6498 130.49 57Z" fill="#A7C957"/>
<path d="M139.47 92.8001C139.47 92.3155 139.614 91.8418 139.883 91.4389C140.152 91.036 140.535 90.722 140.982 90.5366C141.43 90.3512 141.923 90.3026 142.398 90.3972C142.873 90.4917 143.31 90.725 143.652 91.0677C143.995 91.4103 144.228 91.8469 144.323 92.3221C144.417 92.7974 144.369 93.29 144.183 93.7377C143.998 94.1853 143.684 94.568 143.281 94.8372C142.878 95.1064 142.405 95.2501 141.92 95.2501C141.27 95.2501 140.647 94.992 140.188 94.5325C139.728 94.073 139.47 93.4499 139.47 92.8001Z" fill="#A7C957"/>
<path d="M139.47 83.8399C139.47 83.3553 139.614 82.8816 139.883 82.4787C140.152 82.0758 140.535 81.7618 140.982 81.5764C141.43 81.391 141.923 81.3424 142.398 81.437C142.873 81.5315 143.31 81.7648 143.652 82.1075C143.995 82.4501 144.228 82.8867 144.323 83.3619C144.417 83.8372 144.369 84.3298 144.183 84.7775C143.998 85.2251 143.684 85.6078 143.281 85.877C142.878 86.1462 142.405 86.2899 141.92 86.2899C141.27 86.2899 140.647 86.0318 140.188 85.5723C139.728 85.1128 139.47 84.4897 139.47 83.8399Z" fill="#A7C957"/>
<path d="M139.47 74.8899C139.468 74.4049 139.61 73.9303 139.878 73.5261C140.146 73.1219 140.528 72.8063 140.975 72.6193C141.423 72.4323 141.916 72.3824 142.392 72.4758C142.868 72.5692 143.305 72.8017 143.649 73.144C143.992 73.4862 144.227 73.9227 144.322 74.3983C144.418 74.8738 144.37 75.3669 144.184 75.8152C143.999 76.2634 143.685 76.6467 143.282 76.9163C142.879 77.186 142.405 77.3299 141.92 77.3299C141.272 77.3299 140.65 77.0732 140.191 76.6159C139.732 76.1586 139.473 75.538 139.47 74.8899Z" fill="#A7C957"/>
<path d="M139.47 65.93C139.47 65.4454 139.614 64.9717 139.883 64.5688C140.152 64.1659 140.535 63.8519 140.982 63.6665C141.43 63.481 141.923 63.4325 142.398 63.5271C142.873 63.6216 143.31 63.8549 143.652 64.1976C143.995 64.5402 144.228 64.9768 144.323 65.452C144.417 65.9273 144.369 66.4199 144.183 66.8676C143.998 67.3152 143.684 67.6979 143.281 67.9671C142.878 68.2363 142.405 68.38 141.92 68.38C141.27 68.38 140.647 68.1219 140.188 67.6624C139.728 67.2029 139.47 66.5798 139.47 65.93Z" fill="#A7C957"/>
<path d="M139.47 57C139.47 56.5155 139.614 56.0418 139.883 55.6389C140.152 55.236 140.535 54.922 140.982 54.7365C141.43 54.5511 141.923 54.5026 142.398 54.5971C142.873 54.6917 143.31 54.925 143.652 55.2676C143.995 55.6103 144.228 56.0468 144.323 56.5221C144.417 56.9973 144.369 57.4899 144.183 57.9376C143.998 58.3853 143.684 58.7679 143.281 59.0372C142.878 59.3064 142.405 59.4501 141.92 59.4501C141.27 59.4501 140.647 59.1919 140.188 58.7325C139.728 58.273 139.47 57.6498 139.47 57Z" fill="#A7C957"/>
<path d="M24.91 119.17C26.0338 119.173 27.1107 119.62 27.9053 120.415C28.6998 121.209 29.1474 122.286 29.15 123.41C29.1448 124.533 28.6964 125.608 27.9024 126.402C27.1083 127.196 26.0329 127.645 24.91 127.65C23.7871 127.645 22.7117 127.196 21.9177 126.402C21.1237 125.608 20.6753 124.533 20.67 123.41C20.6727 122.286 21.1202 121.209 21.9148 120.415C22.7094 119.62 23.7863 119.173 24.91 119.17Z" fill="#325B90"/>
<path d="M20.63 148.35C20.6326 147.226 21.0802 146.149 21.8748 145.355C22.6694 144.56 23.7463 144.113 24.87 144.11C25.9937 144.113 27.0706 144.56 27.8652 145.355C28.6598 146.149 29.1074 147.226 29.11 148.35C29.1047 149.473 28.6563 150.548 27.8623 151.342C27.0683 152.136 25.9929 152.585 24.87 152.59C23.7471 152.585 22.6717 152.136 21.8777 151.342C21.0837 150.548 20.6353 149.473 20.63 148.35Z" fill="#325B90"/>
<path d="M67.6 43.6399L67.83 43.7099C71.3869 45.01 75.2489 45.2292 78.93 44.3399C82.9976 43.3683 86.6504 41.1274 89.3596 37.9417C92.0689 34.756 93.6941 30.7907 94 26.6199C94 26.2199 94 25.8099 94 25.3999V24.5999C93.9609 23.3197 93.7934 22.0467 93.5 20.7999C92.7692 17.651 91.2725 14.7311 89.1425 12.2993C87.0125 9.86759 84.3153 7.9992 81.29 6.85994H81.2L81 6.80994C77.4431 5.50984 73.5812 5.29065 69.9 6.17994C65.8454 7.16448 62.2082 9.41093 59.5124 12.5955C56.8166 15.7802 55.2016 19.7384 54.9 23.8999C54.9 24.3099 54.9 24.7099 54.9 25.1199V25.9199C54.9425 27.2005 55.1134 28.4735 55.41 29.7199C56.1293 32.8575 57.6092 35.77 59.7193 38.2009C61.8293 40.6318 64.5048 42.5066 67.51 43.6599C67.51 43.6599 67.58 43.6299 67.6 43.6399ZM67.52 24.9999C67.5622 23.6644 67.9896 22.3695 68.7508 21.2713C69.5119 20.1731 70.5743 19.3183 71.81 18.8099C72.6431 18.4636 73.5379 18.29 74.44 18.2999C76.1737 18.318 77.8372 18.9871 79.1005 20.1745C80.3639 21.3618 81.1347 22.9807 81.26 24.7099C81.26 24.9633 81.26 25.2133 81.26 25.4599C81.2261 26.7973 80.8057 28.0962 80.0498 29.1999C79.2939 30.3036 78.2347 31.165 77 31.6799C76.167 32.0263 75.2722 32.1998 74.37 32.1899C72.6364 32.1719 70.9728 31.5028 69.7095 30.3154C68.4462 29.128 67.6754 27.5091 67.55 25.7799C67.53 25.5333 67.52 25.2733 67.52 24.9999Z" fill="#FDB90C"/>
</svg>
