<svg width="277" height="195" viewBox="0 0 277 195" fill="none" xmlns="http://www.w3.org/2000/svg">
<path d="M177.32 0H145.11V0.11C145.115 4.33134 145.953 8.51019 147.575 12.4073C149.198 16.3044 151.573 19.8433 154.565 22.8212C157.557 25.7992 161.107 28.1578 165.011 29.762C168.916 31.3662 173.099 32.1845 177.32 32.17V0Z" fill="#325B90"/>
<path d="M102.89 122.13C102.89 112.322 105.798 102.734 111.247 94.5793C116.696 86.4243 124.441 80.0682 133.503 76.3149C142.564 72.5615 152.535 71.5795 162.155 73.4929C171.774 75.4064 180.61 80.1294 187.545 87.0646C194.481 93.9999 199.204 102.836 201.117 112.456C203.031 122.075 202.049 132.046 198.295 141.107C194.542 150.169 188.186 157.914 180.031 163.363C171.876 168.812 162.288 171.72 152.48 171.72C139.328 171.72 126.714 166.495 117.415 157.195C108.115 147.896 102.89 135.282 102.89 122.13Z" fill="#FDB90C"/>
<path d="M276.89 100.08H226.87V150.1H276.89V100.08Z" fill="#2A7EE2"/>
<path d="M78.12 24.78V49.61H78.18C91.3109 49.61 103.904 44.3938 113.189 35.1089C122.474 25.8239 127.69 13.2309 127.69 0.1V0H102.91C102.91 6.57472 100.298 12.8801 95.6492 17.5292C91.0001 22.1782 84.6947 24.79 78.12 24.79V24.78Z" fill="#FDB90C"/>
<path d="M264.34 112.63H239.41V137.56H264.34V112.63Z" fill="#04C8BD"/>
<path d="M33.88 25.26C33.8747 26.3829 33.4263 27.4583 32.6323 28.2523C31.8383 29.0463 30.7629 29.4947 29.64 29.5C28.5171 29.4947 27.4417 29.0463 26.6477 28.2523C25.8537 27.4583 25.4053 26.3829 25.4 25.26C25.4 24.1336 25.846 23.0531 26.6406 22.2548C27.4352 21.4564 28.5137 21.0053 29.64 21C30.7664 21.0053 31.8448 21.4564 32.6393 22.2548C33.4339 23.0531 33.88 24.1336 33.88 25.26Z" fill="#2A7EE2"/>
<path d="M54.62 21C55.7429 21.0053 56.8183 21.4537 57.6123 22.2477C58.4063 23.0417 58.8547 24.1171 58.86 25.24C58.8547 26.3629 58.4063 27.4383 57.6123 28.2323C56.8183 29.0263 55.7429 29.4747 54.62 29.48C53.4971 29.4747 52.4217 29.0263 51.6277 28.2323C50.8337 27.4383 50.3853 26.3629 50.38 25.24C50.3853 24.1171 50.8337 23.0417 51.6277 22.2477C52.4217 21.4537 53.4971 21.0053 54.62 21Z" fill="#2A7EE2"/>
<path d="M5.06006 21C6.18296 21.0053 7.25835 21.4537 8.05237 22.2477C8.84639 23.0417 9.29479 24.1171 9.30005 25.24C9.29479 26.3629 8.84639 27.4383 8.05237 28.2323C7.25835 29.0263 6.18296 29.4747 5.06006 29.48C3.93635 29.4774 2.8594 29.0298 2.06482 28.2352C1.27024 27.4406 0.822709 26.3637 0.820068 25.24C0.822709 24.1163 1.27024 23.0394 2.06482 22.2448C2.8594 21.4502 3.93635 21.0026 5.06006 21Z" fill="#2A7EE2"/>
<path d="M251.63 161.29C252.753 161.295 253.828 161.744 254.622 162.538C255.416 163.332 255.865 164.407 255.87 165.53C255.867 166.654 255.42 167.731 254.625 168.525C253.831 169.32 252.754 169.767 251.63 169.77C250.506 169.767 249.429 169.32 248.635 168.525C247.84 167.731 247.393 166.654 247.39 165.53C247.395 164.407 247.844 163.332 248.638 162.538C249.432 161.744 250.507 161.295 251.63 161.29Z" fill="#04C8BD"/>
<path d="M247.35 190.48C247.353 189.356 247.8 188.279 248.595 187.485C249.389 186.69 250.466 186.243 251.59 186.24C252.714 186.243 253.791 186.69 254.585 187.485C255.38 188.279 255.827 189.356 255.83 190.48C255.825 191.603 255.376 192.678 254.582 193.472C253.788 194.266 252.713 194.715 251.59 194.72C250.467 194.715 249.392 194.266 248.598 193.472C247.804 192.678 247.355 191.603 247.35 190.48Z" fill="#04C8BD"/>
<path d="M155 0H127.64C127.64 6.5236 128.925 12.9833 131.422 19.0102C133.919 25.0371 137.578 30.5131 142.192 35.1255C146.805 39.7379 152.282 43.3964 158.309 45.892C164.336 48.3875 170.796 49.6713 177.32 49.67V22.34C171.399 22.3347 165.721 19.9787 161.536 15.7897C157.351 11.6007 155 5.92147 155 0V0Z" fill="#2A7EE2"/>
<path d="M276.89 0.0100098H226.74V50.05H276.89V0.0100098Z" fill="#2A7EE2"/>
<path d="M226.87 72.5501V100.08C240.131 100.08 252.849 94.8122 262.225 85.4354C271.602 76.0586 276.87 63.3409 276.87 50.0801H249.36C249.355 56.0413 246.983 61.7566 242.766 65.97C238.549 70.1833 232.831 72.5501 226.87 72.5501Z" fill="#325B90"/>
<path d="M202.334 49.8408C216.053 49.7498 227.1 38.5551 227.009 24.8366C226.918 11.1182 215.723 0.0709309 202.005 0.161916C188.286 0.252902 177.239 11.4477 177.33 25.1661C177.421 38.8846 188.616 49.9318 202.334 49.8408Z" fill="#04C8BD"/>
</svg>
